<svg width="24" height="24" viewBox="0 0 114 114" fill="none" xmlns="http://www.w3.org/2000/svg">
<rect width="114" height="114" fill="white"/>
<path d="M98.4242 55.1324V88.9494C98.4242 89.4933 98.2107 90.0148 97.8307 90.3994C97.4506 90.784 96.9352 91 96.3977 91H18.0266C17.4891 91 16.9736 90.784 16.5936 90.3994C16.2135 90.0148 16 89.4933 16 88.9494V65.0218C16.0002 64.6407 16.1053 64.2672 16.3035 63.9432C16.5018 63.6192 16.7854 63.3575 17.1225 63.1874L36.7141 53.298C37.023 53.1422 37.3661 53.0688 37.7109 53.0848C38.0557 53.1008 38.3907 53.2056 38.6843 53.3893C38.9778 53.573 39.2201 53.8296 39.3882 54.1346C39.5563 54.4397 39.6446 54.7831 39.6447 55.1324V61.7071L51.642 55.6551V39.0365C51.642 38.4926 51.8555 37.9711 52.2356 37.5865C52.6157 37.2019 53.1311 36.9859 53.6686 36.9859H57.346C57.8835 36.9859 58.3989 37.2019 58.779 37.5865C59.159 37.9711 59.3725 38.4926 59.3725 39.0365V61.6358L72.7577 54.8805L73.4621 25.0031C73.4744 24.4675 73.6933 23.9581 74.0721 23.5837C74.4508 23.2094 74.9593 22.9999 75.4887 23H84.3346C84.8641 22.9999 85.3725 23.2094 85.7513 23.5837C86.13 23.9581 86.3489 24.4675 86.3612 25.0031L87.3662 57.3992L95.4936 53.298C95.8025 53.1422 96.1456 53.0688 96.4904 53.0848C96.8352 53.1008 97.1703 53.2056 97.4638 53.3893C97.7573 53.573 97.9996 53.8296 98.1677 54.1346C98.3358 54.4397 98.4241 54.7831 98.4242 55.1324ZM30.2188 74.4028H24.7356V82.1988H30.2188V74.4028ZM45.0645 74.4028H39.5813V82.1988H45.0645V74.4028ZM59.9103 74.4028H54.4271V82.1988H59.9126L59.9103 74.4028ZM74.756 74.4028H69.2728V82.1988H74.756V74.4028Z" fill="#D8DFE5"/>
</svg>
