<?xml version="1.0" encoding="utf-8" standalone="no"?>
<!DOCTYPE svg PUBLIC "-//W3C//DTD SVG 1.1//EN"
  "http://www.w3.org/Graphics/SVG/1.1/DTD/svg11.dtd">
<!-- Created with matplotlib (https://matplotlib.org/) -->
<svg height="231.84pt" version="1.1" viewBox="0 0 399.075 231.84" width="399.075pt" xmlns="http://www.w3.org/2000/svg" xmlns:xlink="http://www.w3.org/1999/xlink">
 <defs>
  <style type="text/css">
*{stroke-linecap:butt;stroke-linejoin:round;}
  </style>
 </defs>
 <g id="figure_1">
  <g id="patch_1">
   <path d="M 0 231.84 
L 399.075 231.84 
L 399.075 0 
L 0 0 
z
" style="fill:none;"/>
  </g>
  <g id="axes_1">
   <g id="matplotlib.axis_1"/>
   <g id="matplotlib.axis_2"/>
   <g id="patch_2">
    <path d="M 224.573715 17.083642 
C 224.573715 17.083642 224.573715 17.083642 224.573715 17.083642 
L 224.573715 115.245218 
L 224.573715 17.083642 
z
" style="fill:#f66d44;stroke:#edeff3;stroke-linejoin:miter;stroke-width:1.5;"/>
   </g>
   <g id="patch_3">
    <path d="M 224.573715 17.083642 
C 224.532808 17.083642 224.491901 17.083667 224.450994 17.083718 
C 224.410087 17.08377 224.36918 17.083846 224.328274 17.083949 
L 224.573715 115.245218 
L 224.573715 17.083642 
z
" style="fill:#feae65;stroke:#edeff3;stroke-linejoin:miter;stroke-width:1.5;"/>
   </g>
   <g id="patch_4">
    <path d="M 224.328274 17.083949 
C 224.150649 17.084393 223.973025 17.085319 223.795405 17.086727 
C 223.617786 17.088136 223.44017 17.090026 223.26256 17.092399 
L 224.573715 115.245218 
L 224.328274 17.083949 
z
" style="fill:#e6f69d;stroke:#edeff3;stroke-linejoin:miter;stroke-width:1.5;"/>
   </g>
   <g id="patch_5">
    <path d="M 223.26256 17.092399 
C 223.060289 17.095101 222.858028 17.098428 222.655777 17.10238 
C 222.453527 17.106333 222.25129 17.11091 222.049068 17.116113 
L 224.573715 115.245218 
L 223.26256 17.092399 
z
" style="fill:#aadea7;stroke:#edeff3;stroke-linejoin:miter;stroke-width:1.5;"/>
   </g>
   <g id="patch_6">
    <path d="M 222.049068 17.116113 
C 221.108741 17.140306 220.16881 17.178013 219.229567 17.229224 
C 218.290324 17.280434 217.351865 17.345143 216.414482 17.423329 
L 224.573715 115.245218 
L 222.049068 17.116113 
z
" style="fill:#64c2a6;stroke:#edeff3;stroke-linejoin:miter;stroke-width:1.5;"/>
   </g>
   <g id="patch_7">
    <path d="M 216.414482 17.423329 
C 212.510897 17.748923 208.630298 18.307885 204.793509 19.097215 
C 200.95672 19.886544 197.170616 20.904828 193.455513 22.1466 
L 224.573715 115.245218 
L 216.414482 17.423329 
z
" style="fill:#2d87bb;stroke:#edeff3;stroke-linejoin:miter;stroke-width:1.5;"/>
   </g>
   <g id="patch_8">
    <path d="M 193.455513 22.1466 
C 178.194936 27.247446 164.420068 36.02314 153.347895 47.698363 
C 142.275722 59.373586 134.242206 73.594078 129.957095 89.103484 
L 224.573715 115.245218 
L 193.455513 22.1466 
z
" style="fill:#003f5c;stroke:#edeff3;stroke-linejoin:miter;stroke-width:1.5;"/>
   </g>
   <g id="patch_9">
    <path d="M 129.957095 89.103484 
C 125.594984 104.891577 125.253156 121.52324 128.962876 137.477232 
C 132.672595 153.431225 140.317201 168.205833 151.197468 180.449676 
L 224.573715 115.245218 
L 129.957095 89.103484 
z
" style="fill:#58508d;stroke:#edeff3;stroke-linejoin:miter;stroke-width:1.5;"/>
   </g>
   <g id="patch_10">
    <path d="M 151.197468 180.449676 
C 162.08214 192.698477 175.862589 202.029032 191.277372 207.587237 
C 206.692156 213.145443 223.256122 214.756364 239.453029 212.272539 
L 224.573715 115.245218 
L 151.197468 180.449676 
z
" style="fill:#ff6361;stroke:#edeff3;stroke-linejoin:miter;stroke-width:1.5;"/>
   </g>
   <g id="patch_11">
    <path d="M 239.453029 212.272539 
C 255.650115 209.788686 270.970352 203.288174 284.011318 193.366062 
C 297.052284 183.44395 307.40353 170.412525 314.117497 155.46469 
L 224.573715 115.245218 
L 239.453029 212.272539 
z
" style="fill:#9bbfe0;stroke:#edeff3;stroke-linejoin:miter;stroke-width:1.5;"/>
   </g>
   <g id="patch_12">
    <path d="M 314.117497 155.46469 
C 320.831471 140.516842 323.696844 124.123047 322.451318 107.784005 
C 321.205793 91.444964 315.88857 75.674928 306.986392 61.917499 
L 224.573715 115.245218 
L 314.117497 155.46469 
z
" style="fill:#e8a09a;stroke:#edeff3;stroke-linejoin:miter;stroke-width:1.5;"/>
   </g>
   <g id="patch_13">
    <path d="M 306.986392 61.917499 
C 298.084215 48.16007 285.877269 36.848248 271.482986 29.017523 
C 257.088703 21.186799 240.960129 17.083636 224.573682 17.083642 
L 224.573715 115.245218 
L 306.986392 61.917499 
z
" style="fill:#fbe29f;stroke:#edeff3;stroke-linejoin:miter;stroke-width:1.5;"/>
   </g>
   <g id="patch_14">
    <path clip-path="url(#p91808884b9)" d="M 224.573715 183.958321 
C 242.796643 183.958321 260.27566 176.718275 273.161216 163.832719 
C 286.046772 150.947163 293.286818 133.468146 293.286818 115.245218 
C 293.286818 97.02229 286.046772 79.543272 273.161216 66.657717 
C 260.27566 53.772161 242.796643 46.532115 224.573715 46.532115 
C 206.350787 46.532115 188.871769 53.772161 175.986213 66.657717 
C 163.100657 79.543272 155.860611 97.02229 155.860611 115.245218 
C 155.860611 133.468146 163.100657 150.947163 175.986213 163.832719 
C 188.871769 176.718275 206.350787 183.958321 224.573715 183.958321 
z
" style="fill:#edeff3;stroke:#edeff3;stroke-linejoin:miter;stroke-width:1.5;"/>
   </g>
  </g>
  <g id="legend_1">
   <g id="patch_15">
    <path d="M 7.425 43.675898 
L 23.925 43.675898 
L 23.925 37.900898 
L 7.425 37.900898 
z
" style="fill:#f66d44;stroke:#edeff3;stroke-linejoin:miter;stroke-width:1.5;"/>
   </g>
   <g id="text_1">
    <!-- Организаторские навыки -->
    <defs>
     <path d="M 4.828125 34.859375 
Q 4.828125 52.6875 14.390625 62.765625 
Q 23.96875 72.859375 39.109375 72.859375 
Q 49.03125 72.859375 56.984375 68.109375 
Q 64.9375 63.375 69.109375 54.90625 
Q 73.296875 46.4375 73.296875 35.6875 
Q 73.296875 24.8125 68.890625 16.21875 
Q 64.5 7.625 56.4375 3.203125 
Q 48.390625 -1.21875 39.0625 -1.21875 
Q 28.953125 -1.21875 20.984375 3.65625 
Q 13.03125 8.546875 8.921875 16.984375 
Q 4.828125 25.4375 4.828125 34.859375 
z
M 14.59375 34.71875 
Q 14.59375 21.78125 21.546875 14.328125 
Q 28.515625 6.890625 39.015625 6.890625 
Q 49.703125 6.890625 56.609375 14.40625 
Q 63.53125 21.921875 63.53125 35.75 
Q 63.53125 44.484375 60.578125 51 
Q 57.625 57.515625 51.921875 61.109375 
Q 46.234375 64.703125 39.15625 64.703125 
Q 29.109375 64.703125 21.84375 57.78125 
Q 14.59375 50.875 14.59375 34.71875 
z
" id="ArialMT-1054"/>
     <path d="M 6.59375 -19.875 
L 6.59375 51.859375 
L 14.59375 51.859375 
L 14.59375 45.125 
Q 17.4375 49.078125 21 51.046875 
Q 24.5625 53.03125 29.640625 53.03125 
Q 36.28125 53.03125 41.359375 49.609375 
Q 46.4375 46.1875 49.015625 39.953125 
Q 51.609375 33.734375 51.609375 26.3125 
Q 51.609375 18.359375 48.75 11.984375 
Q 45.90625 5.609375 40.453125 2.21875 
Q 35.015625 -1.171875 29 -1.171875 
Q 24.609375 -1.171875 21.109375 0.6875 
Q 17.625 2.546875 15.375 5.375 
L 15.375 -19.875 
z
M 14.546875 25.640625 
Q 14.546875 15.625 18.59375 10.84375 
Q 22.65625 6.0625 28.421875 6.0625 
Q 34.28125 6.0625 38.453125 11.015625 
Q 42.625 15.96875 42.625 26.375 
Q 42.625 36.28125 38.546875 41.203125 
Q 34.46875 46.140625 28.8125 46.140625 
Q 23.1875 46.140625 18.859375 40.890625 
Q 14.546875 35.640625 14.546875 25.640625 
z
" id="ArialMT-1088"/>
     <path d="M 6.640625 51.859375 
L 36.46875 51.859375 
L 36.46875 44.578125 
L 15.4375 44.578125 
L 15.4375 0 
L 6.640625 0 
z
" id="ArialMT-1075"/>
     <path d="M 40.4375 6.390625 
Q 35.546875 2.25 31.03125 0.53125 
Q 26.515625 -1.171875 21.34375 -1.171875 
Q 12.796875 -1.171875 8.203125 3 
Q 3.609375 7.171875 3.609375 13.671875 
Q 3.609375 17.484375 5.34375 20.625 
Q 7.078125 23.78125 9.890625 25.6875 
Q 12.703125 27.59375 16.21875 28.5625 
Q 18.796875 29.25 24.03125 29.890625 
Q 34.671875 31.15625 39.703125 32.90625 
Q 39.75 34.71875 39.75 35.203125 
Q 39.75 40.578125 37.25 42.78125 
Q 33.890625 45.75 27.25 45.75 
Q 21.046875 45.75 18.09375 43.578125 
Q 15.140625 41.40625 13.71875 35.890625 
L 5.125 37.0625 
Q 6.296875 42.578125 8.984375 45.96875 
Q 11.671875 49.359375 16.75 51.1875 
Q 21.828125 53.03125 28.515625 53.03125 
Q 35.15625 53.03125 39.296875 51.46875 
Q 43.453125 49.90625 45.40625 47.53125 
Q 47.359375 45.171875 48.140625 41.546875 
Q 48.578125 39.3125 48.578125 33.453125 
L 48.578125 21.734375 
Q 48.578125 9.46875 49.140625 6.21875 
Q 49.703125 2.984375 51.375 0 
L 42.1875 0 
Q 40.828125 2.734375 40.4375 6.390625 
z
M 39.703125 26.03125 
Q 34.90625 24.078125 25.34375 22.703125 
Q 19.921875 21.921875 17.671875 20.9375 
Q 15.4375 19.96875 14.203125 18.09375 
Q 12.984375 16.21875 12.984375 13.921875 
Q 12.984375 10.40625 15.640625 8.0625 
Q 18.3125 5.71875 23.4375 5.71875 
Q 28.515625 5.71875 32.46875 7.9375 
Q 36.421875 10.15625 38.28125 14.015625 
Q 39.703125 17 39.703125 22.796875 
z
" id="ArialMT-1072"/>
     <path d="M 6.640625 51.859375 
L 15.4375 51.859375 
L 15.4375 30.28125 
L 39.796875 30.28125 
L 39.796875 51.859375 
L 48.578125 51.859375 
L 48.578125 0 
L 39.796875 0 
L 39.796875 23 
L 15.4375 23 
L 15.4375 0 
L 6.640625 0 
z
" id="ArialMT-1085"/>
     <path d="M 6.59375 51.859375 
L 15.375 51.859375 
L 15.375 12.3125 
L 39.75 51.859375 
L 49.21875 51.859375 
L 49.21875 0 
L 40.4375 0 
L 40.4375 39.3125 
L 16.0625 0 
L 6.59375 0 
z
" id="ArialMT-1080"/>
     <path d="M 18.0625 23.4375 
L 18.0625 30.328125 
Q 23.640625 30.375 25.65625 30.765625 
Q 27.6875 31.15625 29.484375 33.109375 
Q 31.296875 35.0625 31.296875 37.984375 
Q 31.296875 41.546875 28.921875 43.671875 
Q 26.5625 45.796875 22.796875 45.796875 
Q 15.375 45.796875 12.40625 37.0625 
L 4.046875 38.421875 
Q 7.953125 53.03125 22.90625 53.03125 
Q 31.203125 53.03125 35.90625 48.484375 
Q 40.625 43.953125 40.625 37.640625 
Q 40.625 31.296875 34.46875 27.546875 
Q 38.375 25.4375 40.328125 22.1875 
Q 42.28125 18.953125 42.28125 14.5 
Q 42.28125 7.515625 37.203125 3.171875 
Q 32.125 -1.171875 23 -1.171875 
Q 5.28125 -1.171875 2.4375 14.59375 
L 10.6875 16.359375 
Q 11.8125 11.375 15.25 8.640625 
Q 18.703125 5.90625 23.140625 5.90625 
Q 27.59375 5.90625 30.546875 8.421875 
Q 33.5 10.9375 33.5 14.84375 
Q 33.5 17.875 31.640625 20.109375 
Q 29.78125 22.359375 27.6875 22.921875 
Q 25.59375 23.484375 20.0625 23.484375 
Q 19.625 23.484375 18.0625 23.4375 
z
" id="ArialMT-1079"/>
     <path d="M 1.859375 51.859375 
L 44 51.859375 
L 44 44.578125 
L 27.296875 44.578125 
L 27.296875 0 
L 18.5625 0 
L 18.5625 44.578125 
L 1.859375 44.578125 
z
" id="ArialMT-1090"/>
     <path d="M 3.328125 25.921875 
Q 3.328125 40.328125 11.328125 47.265625 
Q 18.015625 53.03125 27.640625 53.03125 
Q 38.328125 53.03125 45.109375 46.015625 
Q 51.90625 39.015625 51.90625 26.65625 
Q 51.90625 16.65625 48.90625 10.90625 
Q 45.90625 5.171875 40.15625 2 
Q 34.421875 -1.171875 27.640625 -1.171875 
Q 16.75 -1.171875 10.03125 5.8125 
Q 3.328125 12.796875 3.328125 25.921875 
z
M 12.359375 25.921875 
Q 12.359375 15.96875 16.703125 11.015625 
Q 21.046875 6.0625 27.640625 6.0625 
Q 34.1875 6.0625 38.53125 11.03125 
Q 42.875 16.015625 42.875 26.21875 
Q 42.875 35.84375 38.5 40.796875 
Q 34.125 45.75 27.640625 45.75 
Q 21.046875 45.75 16.703125 40.8125 
Q 12.359375 35.890625 12.359375 25.921875 
z
" id="ArialMT-1086"/>
     <path d="M 40.4375 19 
L 49.078125 17.875 
Q 47.65625 8.9375 41.8125 3.875 
Q 35.984375 -1.171875 27.484375 -1.171875 
Q 16.84375 -1.171875 10.375 5.78125 
Q 3.90625 12.75 3.90625 25.734375 
Q 3.90625 34.125 6.6875 40.421875 
Q 9.46875 46.734375 15.15625 49.875 
Q 20.84375 53.03125 27.546875 53.03125 
Q 35.984375 53.03125 41.359375 48.75 
Q 46.734375 44.484375 48.25 36.625 
L 39.703125 35.296875 
Q 38.484375 40.53125 35.375 43.15625 
Q 32.28125 45.796875 27.875 45.796875 
Q 21.234375 45.796875 17.078125 41.03125 
Q 12.9375 36.28125 12.9375 25.984375 
Q 12.9375 15.53125 16.9375 10.796875 
Q 20.953125 6.0625 27.390625 6.0625 
Q 32.5625 6.0625 36.03125 9.234375 
Q 39.5 12.40625 40.4375 19 
z
" id="ArialMT-1089"/>
     <path d="M 6.546875 51.859375 
L 15.328125 51.859375 
L 15.328125 29.4375 
Q 19.53125 29.4375 21.21875 31.046875 
Q 22.90625 32.671875 26.171875 40.4375 
Q 28.765625 46.578125 30.375 48.53125 
Q 31.984375 50.484375 34.078125 51.171875 
Q 36.1875 51.859375 40.828125 51.859375 
L 42.578125 51.859375 
L 42.578125 44.578125 
L 40.140625 44.625 
Q 36.671875 44.625 35.6875 43.609375 
Q 34.671875 42.53125 32.5625 37.203125 
Q 30.5625 32.125 28.90625 30.171875 
Q 27.25 28.21875 23.78125 26.609375 
Q 29.4375 25.09375 34.90625 16.0625 
L 44.53125 0 
L 34.859375 0 
L 25.484375 16.0625 
Q 22.609375 20.90625 20.453125 22.4375 
Q 18.3125 23.96875 15.328125 23.96875 
L 15.328125 0 
L 6.546875 0 
z
" id="ArialMT-1082"/>
     <path d="M 42.09375 16.703125 
L 51.171875 15.578125 
Q 49.03125 7.625 43.21875 3.21875 
Q 37.40625 -1.171875 28.375 -1.171875 
Q 17 -1.171875 10.328125 5.828125 
Q 3.65625 12.84375 3.65625 25.484375 
Q 3.65625 38.578125 10.390625 45.796875 
Q 17.140625 53.03125 27.875 53.03125 
Q 38.28125 53.03125 44.875 45.953125 
Q 51.46875 38.875 51.46875 26.03125 
Q 51.46875 25.25 51.421875 23.6875 
L 12.75 23.6875 
Q 13.234375 15.140625 17.578125 10.59375 
Q 21.921875 6.0625 28.421875 6.0625 
Q 33.25 6.0625 36.671875 8.59375 
Q 40.09375 11.140625 42.09375 16.703125 
z
M 13.234375 30.90625 
L 42.1875 30.90625 
Q 41.609375 37.453125 38.875 40.71875 
Q 34.671875 45.796875 27.984375 45.796875 
Q 21.921875 45.796875 17.796875 41.75 
Q 13.671875 37.703125 13.234375 30.90625 
z
" id="ArialMT-1077"/>
     <path id="ArialMT-32"/>
     <path d="M 6.640625 51.859375 
L 26.90625 51.859375 
Q 34.375 51.859375 38.015625 50.609375 
Q 41.65625 49.359375 44.265625 46.03125 
Q 46.875 42.71875 46.875 38.09375 
Q 46.875 34.375 45.328125 31.609375 
Q 43.796875 28.859375 40.71875 27 
Q 44.390625 25.78125 46.796875 22.4375 
Q 49.21875 19.09375 49.21875 14.5 
Q 48.734375 7.125 43.9375 3.5625 
Q 39.15625 0 30.03125 0 
L 6.640625 0 
z
M 15.4375 30.03125 
L 24.8125 30.03125 
Q 30.421875 30.03125 32.515625 30.609375 
Q 34.625 31.203125 36.28125 32.984375 
Q 37.9375 34.765625 37.9375 37.25 
Q 37.9375 41.359375 35.03125 42.96875 
Q 32.125 44.578125 25.09375 44.578125 
L 15.4375 44.578125 
z
M 15.4375 7.234375 
L 27 7.234375 
Q 34.46875 7.234375 37.25 8.953125 
Q 40.046875 10.6875 40.1875 14.9375 
Q 40.1875 17.4375 38.578125 19.5625 
Q 36.96875 21.6875 34.375 22.234375 
Q 31.78125 22.796875 26.078125 22.796875 
L 15.4375 22.796875 
z
" id="ArialMT-1074"/>
     <path d="M 55.953125 51.859375 
L 64.75 51.859375 
L 64.75 0 
L 55.953125 0 
z
M 6.78125 51.859375 
L 15.578125 51.859375 
L 15.578125 31.59375 
L 26.703125 31.59375 
Q 37.59375 31.59375 43.46875 27.359375 
Q 49.359375 23.140625 49.359375 15.71875 
Q 49.359375 9.234375 44.453125 4.609375 
Q 39.546875 0 28.765625 0 
L 6.78125 0 
z
M 15.578125 7.234375 
L 24.8125 7.234375 
Q 33.15625 7.234375 36.71875 9.28125 
Q 40.28125 11.328125 40.28125 15.671875 
Q 40.28125 19.046875 37.640625 21.671875 
Q 35.015625 24.3125 25.984375 24.3125 
L 15.578125 24.3125 
z
" id="ArialMT-1099"/>
    </defs>
    <g style="fill:#262626;" transform="translate(30.525 43.675898)scale(0.0825 -0.0825)">
     <use xlink:href="#ArialMT-1054"/>
     <use x="77.783203" xlink:href="#ArialMT-1088"/>
     <use x="133.398438" xlink:href="#ArialMT-1075"/>
     <use x="169.841797" xlink:href="#ArialMT-1072"/>
     <use x="225.457031" xlink:href="#ArialMT-1085"/>
     <use x="280.681641" xlink:href="#ArialMT-1080"/>
     <use x="336.541016" xlink:href="#ArialMT-1079"/>
     <use x="382.390625" xlink:href="#ArialMT-1072"/>
     <use x="437.974609" xlink:href="#ArialMT-1090"/>
     <use x="483.759766" xlink:href="#ArialMT-1086"/>
     <use x="539.375" xlink:href="#ArialMT-1088"/>
     <use x="594.990234" xlink:href="#ArialMT-1089"/>
     <use x="644.990234" xlink:href="#ArialMT-1082"/>
     <use x="688.740234" xlink:href="#ArialMT-1080"/>
     <use x="744.599609" xlink:href="#ArialMT-1077"/>
     <use x="800.214844" xlink:href="#ArialMT-32"/>
     <use x="827.998047" xlink:href="#ArialMT-1085"/>
     <use x="883.222656" xlink:href="#ArialMT-1072"/>
     <use x="938.837891" xlink:href="#ArialMT-1074"/>
     <use x="991.962891" xlink:href="#ArialMT-1099"/>
     <use x="1063.837891" xlink:href="#ArialMT-1082"/>
     <use x="1107.587891" xlink:href="#ArialMT-1080"/>
    </g>
   </g>
   <g id="patch_16">
    <path d="M 7.425 55.487578 
L 23.925 55.487578 
L 23.925 49.712578 
L 7.425 49.712578 
z
" style="fill:#feae65;stroke:#edeff3;stroke-linejoin:miter;stroke-width:1.5;"/>
   </g>
   <g id="text_2">
    <!-- Продвижение бренда -->
    <defs>
     <path d="M 7.8125 71.578125 
L 64.109375 71.578125 
L 64.109375 0 
L 54.59375 0 
L 54.59375 63.140625 
L 17.28125 63.140625 
L 17.28125 0 
L 7.8125 0 
z
" id="ArialMT-1055"/>
     <path d="M 13.53125 51.859375 
L 49.65625 51.859375 
L 49.65625 7.234375 
L 55.28125 7.234375 
L 55.28125 -14.703125 
L 48.046875 -14.703125 
L 48.046875 0 
L 7.234375 0 
L 7.234375 -14.703125 
L 0 -14.703125 
L 0 7.234375 
L 4.640625 7.234375 
Q 13.921875 19.828125 13.53125 51.859375 
z
M 20.84375 44.578125 
Q 19.875 19.34375 13.03125 7.234375 
L 40.921875 7.234375 
L 40.921875 44.578125 
z
" id="ArialMT-1076"/>
     <path d="M 37.9375 51.859375 
L 37.9375 29.4375 
Q 42.140625 29.4375 43.84375 31.046875 
Q 45.5625 32.671875 48.828125 40.4375 
Q 51.90625 47.796875 54.34375 49.859375 
Q 56.734375 51.859375 61.96875 51.859375 
L 65.1875 51.859375 
L 65.1875 44.578125 
L 62.796875 44.625 
Q 59.28125 44.625 58.296875 43.609375 
Q 57.28125 42.53125 55.171875 37.203125 
Q 53.21875 32.125 51.5625 30.171875 
Q 49.90625 28.21875 46.390625 26.609375 
Q 52.09375 25.09375 57.515625 16.0625 
L 67.1875 0 
L 57.515625 0 
L 48.09375 16.0625 
Q 45.21875 20.953125 43.0625 22.453125 
Q 40.921875 23.96875 37.9375 23.96875 
L 37.9375 0 
L 28.953125 0 
L 28.953125 23.96875 
Q 26.03125 23.96875 23.875 22.484375 
Q 21.734375 21 18.84375 16.0625 
L 9.421875 0 
L -0.25 0 
L 9.375 16.0625 
Q 14.84375 25.09375 20.5625 26.609375 
Q 16.65625 28.421875 15.09375 30.546875 
Q 13.53125 32.671875 10.40625 40.671875 
Q 9.328125 43.359375 8.109375 44 
Q 6.84375 44.625 4.34375 44.625 
Q 3.71875 44.625 1.765625 44.578125 
L 1.765625 51.859375 
L 2.984375 51.859375 
Q 8.0625 51.859375 10.125 51.25 
Q 12.203125 50.640625 13.84375 48.65625 
Q 15.484375 46.6875 18.109375 40.4375 
Q 21.34375 32.765625 23.015625 31.09375 
Q 24.703125 29.4375 28.953125 29.4375 
L 28.953125 51.859375 
z
" id="ArialMT-1078"/>
     <path d="M 44.578125 73.296875 
L 52.34375 73.1875 
Q 51.8125 67.96875 50.03125 65.921875 
Q 48.25 63.875 45.4375 63.28125 
Q 42.625 62.703125 34.421875 62.703125 
Q 23.53125 62.703125 19.578125 60.59375 
Q 15.625 58.5 13.890625 53.875 
Q 12.15625 49.265625 11.96875 42 
Q 15.28125 46.921875 19.71875 49.390625 
Q 24.171875 51.859375 29.734375 51.859375 
Q 39.9375 51.859375 46.625 44.84375 
Q 53.328125 37.84375 53.328125 25.875 
Q 53.328125 16.796875 49.953125 10.984375 
Q 46.578125 5.171875 41.96875 2 
Q 37.359375 -1.171875 29.390625 -1.171875 
Q 20.171875 -1.171875 15.03125 3.046875 
Q 9.90625 7.28125 7.171875 13.859375 
Q 4.4375 20.453125 4.4375 36.8125 
Q 4.4375 57.375 11.390625 64.5 
Q 18.359375 71.625 32.8125 71.625 
Q 41.796875 71.625 43.015625 71.921875 
Q 44.234375 72.21875 44.578125 73.296875 
z
M 44.140625 26.125 
Q 44.140625 34.234375 40.296875 39.40625 
Q 36.46875 44.578125 29.5 44.578125 
Q 22.21875 44.578125 18.265625 39.109375 
Q 14.3125 33.640625 14.3125 24.515625 
Q 14.3125 15.484375 18.671875 10.6875 
Q 23.046875 5.90625 29.4375 5.90625 
Q 35.984375 5.90625 40.0625 11.453125 
Q 44.140625 17 44.140625 26.125 
z
" id="ArialMT-1073"/>
    </defs>
    <g style="fill:#262626;" transform="translate(30.525 55.487578)scale(0.0825 -0.0825)">
     <use xlink:href="#ArialMT-1055"/>
     <use x="71.875" xlink:href="#ArialMT-1088"/>
     <use x="127.490234" xlink:href="#ArialMT-1086"/>
     <use x="183.074219" xlink:href="#ArialMT-1076"/>
     <use x="241.423828" xlink:href="#ArialMT-1074"/>
     <use x="294.548828" xlink:href="#ArialMT-1080"/>
     <use x="350.408203" xlink:href="#ArialMT-1078"/>
     <use x="417.302734" xlink:href="#ArialMT-1077"/>
     <use x="472.917969" xlink:href="#ArialMT-1085"/>
     <use x="528.142578" xlink:href="#ArialMT-1080"/>
     <use x="584.001953" xlink:href="#ArialMT-1077"/>
     <use x="639.617188" xlink:href="#ArialMT-32"/>
     <use x="667.400391" xlink:href="#ArialMT-1073"/>
     <use x="724.675781" xlink:href="#ArialMT-1088"/>
     <use x="780.291016" xlink:href="#ArialMT-1077"/>
     <use x="835.90625" xlink:href="#ArialMT-1085"/>
     <use x="891.130859" xlink:href="#ArialMT-1076"/>
     <use x="949.480469" xlink:href="#ArialMT-1072"/>
    </g>
   </g>
   <g id="patch_17">
    <path d="M 7.425 67.157461 
L 23.925 67.157461 
L 23.925 61.382461 
L 7.425 61.382461 
z
" style="fill:#e6f69d;stroke:#edeff3;stroke-linejoin:miter;stroke-width:1.5;"/>
   </g>
   <g id="text_3">
    <!-- Подготовка презентаций -->
    <defs>
     <path d="M 6.640625 51.859375 
L 47.5625 51.859375 
L 47.5625 0 
L 38.765625 0 
L 38.765625 44.578125 
L 15.4375 44.578125 
L 15.4375 0 
L 6.640625 0 
z
" id="ArialMT-1087"/>
     <path d="M 6.734375 51.859375 
L 15.53125 51.859375 
L 15.53125 7.234375 
L 39.84375 7.234375 
L 39.84375 51.859375 
L 48.640625 51.859375 
L 48.640625 7.234375 
L 54.296875 7.234375 
L 54.296875 -14.703125 
L 47.078125 -14.703125 
L 47.078125 0 
L 6.734375 0 
z
" id="ArialMT-1094"/>
     <path d="M 6.59375 51.859375 
L 15.375 51.859375 
L 15.375 12.3125 
L 39.75 51.859375 
L 49.21875 51.859375 
L 49.21875 0 
L 40.4375 0 
L 40.4375 39.3125 
L 16.0625 0 
L 6.59375 0 
z
M 37.109375 71.484375 
L 43.109375 71.484375 
Q 42.390625 65.375 38.640625 62.109375 
Q 34.90625 58.84375 28.71875 58.84375 
Q 22.46875 58.84375 18.71875 62.078125 
Q 14.984375 65.328125 14.265625 71.484375 
L 20.265625 71.484375 
Q 20.953125 68.171875 22.96875 66.53125 
Q 25 64.890625 28.421875 64.890625 
Q 32.375 64.890625 34.390625 66.46875 
Q 36.421875 68.0625 37.109375 71.484375 
z
" id="ArialMT-1081"/>
    </defs>
    <g style="fill:#262626;" transform="translate(30.525 67.157461)scale(0.0825 -0.0825)">
     <use xlink:href="#ArialMT-1055"/>
     <use x="71.875" xlink:href="#ArialMT-1086"/>
     <use x="127.458984" xlink:href="#ArialMT-1076"/>
     <use x="185.808594" xlink:href="#ArialMT-1075"/>
     <use x="222.251953" xlink:href="#ArialMT-1086"/>
     <use x="277.835938" xlink:href="#ArialMT-1090"/>
     <use x="323.621094" xlink:href="#ArialMT-1086"/>
     <use x="379.236328" xlink:href="#ArialMT-1074"/>
     <use x="432.361328" xlink:href="#ArialMT-1082"/>
     <use x="476.142578" xlink:href="#ArialMT-1072"/>
     <use x="531.757812" xlink:href="#ArialMT-32"/>
     <use x="559.541016" xlink:href="#ArialMT-1087"/>
     <use x="613.691406" xlink:href="#ArialMT-1088"/>
     <use x="669.306641" xlink:href="#ArialMT-1077"/>
     <use x="724.890625" xlink:href="#ArialMT-1079"/>
     <use x="770.724609" xlink:href="#ArialMT-1077"/>
     <use x="826.339844" xlink:href="#ArialMT-1085"/>
     <use x="881.564453" xlink:href="#ArialMT-1090"/>
     <use x="927.349609" xlink:href="#ArialMT-1072"/>
     <use x="982.964844" xlink:href="#ArialMT-1094"/>
     <use x="1040.240234" xlink:href="#ArialMT-1080"/>
     <use x="1096.099609" xlink:href="#ArialMT-1081"/>
    </g>
   </g>
   <g id="patch_18">
    <path d="M 7.425 78.827344 
L 23.925 78.827344 
L 23.925 73.052344 
L 7.425 73.052344 
z
" style="fill:#aadea7;stroke:#edeff3;stroke-linejoin:miter;stroke-width:1.5;"/>
   </g>
   <g id="text_4">
    <!-- Английский язык -->
    <defs>
     <path d="M -0.140625 0 
L 27.34375 71.578125 
L 37.546875 71.578125 
L 66.84375 0 
L 56.0625 0 
L 47.703125 21.6875 
L 17.78125 21.6875 
L 9.90625 0 
z
M 20.515625 29.390625 
L 44.78125 29.390625 
L 37.3125 49.21875 
Q 33.890625 58.25 32.234375 64.0625 
Q 30.859375 57.171875 28.375 50.390625 
z
" id="ArialMT-1040"/>
     <path d="M 10.890625 51.859375 
L 51.703125 51.859375 
L 51.703125 0 
L 42.96875 0 
L 42.96875 44.578125 
L 19.671875 44.578125 
L 19.671875 18.75 
Q 19.671875 9.71875 19.078125 6.828125 
Q 18.5 3.953125 15.859375 1.796875 
Q 13.234375 -0.34375 8.25 -0.34375 
Q 5.171875 -0.34375 1.171875 0.046875 
L 1.171875 7.375 
L 5.03125 7.375 
Q 7.765625 7.375 8.9375 7.9375 
Q 10.109375 8.5 10.5 9.71875 
Q 10.890625 10.9375 10.890625 17.671875 
z
" id="ArialMT-1083"/>
     <path d="M 47.40625 51.859375 
L 47.40625 0 
L 38.671875 0 
L 38.671875 20.21875 
L 33.59375 20.21875 
Q 28.953125 20.21875 26.6875 19.015625 
Q 24.421875 17.828125 20.0625 11.328125 
L 12.40625 0 
L 1.515625 0 
L 10.984375 13.96875 
Q 15.328125 20.359375 19.625 21.1875 
Q 12.109375 22.21875 8.46875 26.609375 
Q 4.828125 31 4.828125 36.71875 
Q 4.828125 43.453125 9.59375 47.65625 
Q 14.359375 51.859375 23.390625 51.859375 
z
M 38.671875 44.578125 
L 26.171875 44.578125 
Q 18.3125 44.578125 16.03125 42.140625 
Q 13.765625 39.703125 13.765625 36.421875 
Q 13.765625 31.78125 17.109375 29.609375 
Q 20.453125 27.4375 28.953125 27.4375 
L 38.671875 27.4375 
z
" id="ArialMT-1103"/>
    </defs>
    <g style="fill:#262626;" transform="translate(30.525 78.827344)scale(0.0825 -0.0825)">
     <use xlink:href="#ArialMT-1040"/>
     <use x="66.699219" xlink:href="#ArialMT-1085"/>
     <use x="121.923828" xlink:href="#ArialMT-1075"/>
     <use x="158.367188" xlink:href="#ArialMT-1083"/>
     <use x="216.716797" xlink:href="#ArialMT-1080"/>
     <use x="272.576172" xlink:href="#ArialMT-1081"/>
     <use x="328.435547" xlink:href="#ArialMT-1089"/>
     <use x="378.435547" xlink:href="#ArialMT-1082"/>
     <use x="422.185547" xlink:href="#ArialMT-1080"/>
     <use x="478.044922" xlink:href="#ArialMT-1081"/>
     <use x="533.904297" xlink:href="#ArialMT-32"/>
     <use x="561.6875" xlink:href="#ArialMT-1103"/>
     <use x="615.837891" xlink:href="#ArialMT-1079"/>
     <use x="661.6875" xlink:href="#ArialMT-1099"/>
     <use x="733.5625" xlink:href="#ArialMT-1082"/>
    </g>
   </g>
   <g id="patch_19">
    <path d="M 7.425 90.497227 
L 23.925 90.497227 
L 23.925 84.722227 
L 7.425 84.722227 
z
" style="fill:#64c2a6;stroke:#edeff3;stroke-linejoin:miter;stroke-width:1.5;"/>
   </g>
   <g id="text_5">
    <!-- MS PowerPoint -->
    <defs>
     <path d="M 7.421875 0 
L 7.421875 71.578125 
L 21.6875 71.578125 
L 38.625 20.90625 
Q 40.96875 13.8125 42.046875 10.296875 
Q 43.265625 14.203125 45.84375 21.78125 
L 62.984375 71.578125 
L 75.734375 71.578125 
L 75.734375 0 
L 66.609375 0 
L 66.609375 59.90625 
L 45.796875 0 
L 37.25 0 
L 16.546875 60.9375 
L 16.546875 0 
z
" id="ArialMT-77"/>
     <path d="M 4.5 23 
L 13.421875 23.78125 
Q 14.0625 18.40625 16.375 14.96875 
Q 18.703125 11.53125 23.578125 9.40625 
Q 28.46875 7.28125 34.578125 7.28125 
Q 39.984375 7.28125 44.140625 8.890625 
Q 48.296875 10.5 50.3125 13.296875 
Q 52.34375 16.109375 52.34375 19.4375 
Q 52.34375 22.796875 50.390625 25.3125 
Q 48.4375 27.828125 43.953125 29.546875 
Q 41.0625 30.671875 31.203125 33.03125 
Q 21.34375 35.40625 17.390625 37.5 
Q 12.25 40.1875 9.734375 44.15625 
Q 7.234375 48.140625 7.234375 53.078125 
Q 7.234375 58.5 10.296875 63.203125 
Q 13.375 67.921875 19.28125 70.359375 
Q 25.203125 72.796875 32.421875 72.796875 
Q 40.375 72.796875 46.453125 70.234375 
Q 52.546875 67.671875 55.8125 62.6875 
Q 59.078125 57.71875 59.328125 51.421875 
L 50.25 50.734375 
Q 49.515625 57.515625 45.28125 60.984375 
Q 41.0625 64.453125 32.8125 64.453125 
Q 24.21875 64.453125 20.28125 61.296875 
Q 16.359375 58.15625 16.359375 53.71875 
Q 16.359375 49.859375 19.140625 47.359375 
Q 21.875 44.875 33.421875 42.265625 
Q 44.96875 39.65625 49.265625 37.703125 
Q 55.515625 34.8125 58.484375 30.390625 
Q 61.46875 25.984375 61.46875 20.21875 
Q 61.46875 14.5 58.203125 9.4375 
Q 54.9375 4.390625 48.796875 1.578125 
Q 42.671875 -1.21875 35.015625 -1.21875 
Q 25.296875 -1.21875 18.71875 1.609375 
Q 12.15625 4.4375 8.421875 10.125 
Q 4.6875 15.828125 4.5 23 
z
" id="ArialMT-83"/>
     <path d="M 7.71875 0 
L 7.71875 71.578125 
L 34.71875 71.578125 
Q 41.84375 71.578125 45.609375 70.90625 
Q 50.875 70.015625 54.4375 67.546875 
Q 58.015625 65.09375 60.1875 60.640625 
Q 62.359375 56.203125 62.359375 50.875 
Q 62.359375 41.75 56.546875 35.421875 
Q 50.734375 29.109375 35.546875 29.109375 
L 17.1875 29.109375 
L 17.1875 0 
z
M 17.1875 37.546875 
L 35.6875 37.546875 
Q 44.875 37.546875 48.734375 40.96875 
Q 52.59375 44.390625 52.59375 50.59375 
Q 52.59375 55.078125 50.3125 58.265625 
Q 48.046875 61.46875 44.34375 62.5 
Q 41.9375 63.140625 35.5 63.140625 
L 17.1875 63.140625 
z
" id="ArialMT-80"/>
     <path d="M 3.328125 25.921875 
Q 3.328125 40.328125 11.328125 47.265625 
Q 18.015625 53.03125 27.640625 53.03125 
Q 38.328125 53.03125 45.109375 46.015625 
Q 51.90625 39.015625 51.90625 26.65625 
Q 51.90625 16.65625 48.90625 10.90625 
Q 45.90625 5.171875 40.15625 2 
Q 34.421875 -1.171875 27.640625 -1.171875 
Q 16.75 -1.171875 10.03125 5.8125 
Q 3.328125 12.796875 3.328125 25.921875 
z
M 12.359375 25.921875 
Q 12.359375 15.96875 16.703125 11.015625 
Q 21.046875 6.0625 27.640625 6.0625 
Q 34.1875 6.0625 38.53125 11.03125 
Q 42.875 16.015625 42.875 26.21875 
Q 42.875 35.84375 38.5 40.796875 
Q 34.125 45.75 27.640625 45.75 
Q 21.046875 45.75 16.703125 40.8125 
Q 12.359375 35.890625 12.359375 25.921875 
z
" id="ArialMT-111"/>
     <path d="M 16.15625 0 
L 0.296875 51.859375 
L 9.375 51.859375 
L 17.625 21.921875 
L 20.703125 10.796875 
Q 20.90625 11.625 23.390625 21.484375 
L 31.640625 51.859375 
L 40.671875 51.859375 
L 48.4375 21.78125 
L 51.03125 11.859375 
L 54 21.875 
L 62.890625 51.859375 
L 71.4375 51.859375 
L 55.21875 0 
L 46.09375 0 
L 37.84375 31.0625 
L 35.84375 39.890625 
L 25.34375 0 
z
" id="ArialMT-119"/>
     <path d="M 42.09375 16.703125 
L 51.171875 15.578125 
Q 49.03125 7.625 43.21875 3.21875 
Q 37.40625 -1.171875 28.375 -1.171875 
Q 17 -1.171875 10.328125 5.828125 
Q 3.65625 12.84375 3.65625 25.484375 
Q 3.65625 38.578125 10.390625 45.796875 
Q 17.140625 53.03125 27.875 53.03125 
Q 38.28125 53.03125 44.875 45.953125 
Q 51.46875 38.875 51.46875 26.03125 
Q 51.46875 25.25 51.421875 23.6875 
L 12.75 23.6875 
Q 13.234375 15.140625 17.578125 10.59375 
Q 21.921875 6.0625 28.421875 6.0625 
Q 33.25 6.0625 36.671875 8.59375 
Q 40.09375 11.140625 42.09375 16.703125 
z
M 13.234375 30.90625 
L 42.1875 30.90625 
Q 41.609375 37.453125 38.875 40.71875 
Q 34.671875 45.796875 27.984375 45.796875 
Q 21.921875 45.796875 17.796875 41.75 
Q 13.671875 37.703125 13.234375 30.90625 
z
" id="ArialMT-101"/>
     <path d="M 6.5 0 
L 6.5 51.859375 
L 14.40625 51.859375 
L 14.40625 44 
Q 17.4375 49.515625 20 51.265625 
Q 22.5625 53.03125 25.640625 53.03125 
Q 30.078125 53.03125 34.671875 50.203125 
L 31.640625 42.046875 
Q 28.421875 43.953125 25.203125 43.953125 
Q 22.3125 43.953125 20.015625 42.21875 
Q 17.71875 40.484375 16.75 37.40625 
Q 15.28125 32.71875 15.28125 27.15625 
L 15.28125 0 
z
" id="ArialMT-114"/>
     <path d="M 6.640625 61.46875 
L 6.640625 71.578125 
L 15.4375 71.578125 
L 15.4375 61.46875 
z
M 6.640625 0 
L 6.640625 51.859375 
L 15.4375 51.859375 
L 15.4375 0 
z
" id="ArialMT-105"/>
     <path d="M 6.59375 0 
L 6.59375 51.859375 
L 14.5 51.859375 
L 14.5 44.484375 
Q 20.21875 53.03125 31 53.03125 
Q 35.6875 53.03125 39.625 51.34375 
Q 43.5625 49.65625 45.515625 46.921875 
Q 47.46875 44.1875 48.25 40.4375 
Q 48.734375 37.984375 48.734375 31.890625 
L 48.734375 0 
L 39.9375 0 
L 39.9375 31.546875 
Q 39.9375 36.921875 38.90625 39.578125 
Q 37.890625 42.234375 35.28125 43.8125 
Q 32.671875 45.40625 29.15625 45.40625 
Q 23.53125 45.40625 19.453125 41.84375 
Q 15.375 38.28125 15.375 28.328125 
L 15.375 0 
z
" id="ArialMT-110"/>
     <path d="M 25.78125 7.859375 
L 27.046875 0.09375 
Q 23.34375 -0.6875 20.40625 -0.6875 
Q 15.625 -0.6875 12.984375 0.828125 
Q 10.359375 2.34375 9.28125 4.8125 
Q 8.203125 7.28125 8.203125 15.1875 
L 8.203125 45.015625 
L 1.765625 45.015625 
L 1.765625 51.859375 
L 8.203125 51.859375 
L 8.203125 64.703125 
L 16.9375 69.96875 
L 16.9375 51.859375 
L 25.78125 51.859375 
L 25.78125 45.015625 
L 16.9375 45.015625 
L 16.9375 14.703125 
Q 16.9375 10.9375 17.40625 9.859375 
Q 17.875 8.796875 18.921875 8.15625 
Q 19.96875 7.515625 21.921875 7.515625 
Q 23.390625 7.515625 25.78125 7.859375 
z
" id="ArialMT-116"/>
    </defs>
    <g style="fill:#262626;" transform="translate(30.525 90.497227)scale(0.0825 -0.0825)">
     <use xlink:href="#ArialMT-77"/>
     <use x="83.300781" xlink:href="#ArialMT-83"/>
     <use x="150" xlink:href="#ArialMT-32"/>
     <use x="177.783203" xlink:href="#ArialMT-80"/>
     <use x="244.482422" xlink:href="#ArialMT-111"/>
     <use x="300.097656" xlink:href="#ArialMT-119"/>
     <use x="372.314453" xlink:href="#ArialMT-101"/>
     <use x="427.929688" xlink:href="#ArialMT-114"/>
     <use x="461.230469" xlink:href="#ArialMT-80"/>
     <use x="527.929688" xlink:href="#ArialMT-111"/>
     <use x="583.544922" xlink:href="#ArialMT-105"/>
     <use x="605.761719" xlink:href="#ArialMT-110"/>
     <use x="661.376953" xlink:href="#ArialMT-116"/>
    </g>
   </g>
   <g id="patch_20">
    <path d="M 7.425 102.167109 
L 23.925 102.167109 
L 23.925 96.392109 
L 7.425 96.392109 
z
" style="fill:#2d87bb;stroke:#edeff3;stroke-linejoin:miter;stroke-width:1.5;"/>
   </g>
   <g id="text_6">
    <!-- Управление проектами -->
    <defs>
     <path d="M 0.484375 71.578125 
L 10.0625 71.578125 
L 33.40625 27.734375 
L 53.8125 71.578125 
L 63.234375 71.578125 
L 36.375 15.921875 
Q 31.34375 5.46875 28.125 2.234375 
Q 24.90625 -0.984375 18.890625 -0.984375 
Q 15.234375 -0.984375 9.90625 0.734375 
L 9.90625 8.84375 
Q 13.71875 6.640625 17.96875 6.640625 
Q 21.4375 6.640625 23.953125 8.859375 
Q 26.46875 11.078125 29.5 19 
z
" id="ArialMT-1059"/>
     <path d="M 6.84375 51.859375 
L 20.515625 51.859375 
L 34.125 10.359375 
L 49.265625 51.859375 
L 61.921875 51.859375 
L 61.921875 0 
L 53.125 0 
L 53.125 41.75 
L 37.796875 0 
L 29.9375 0 
L 15.4375 43.75 
L 15.4375 0 
L 6.84375 0 
z
" id="ArialMT-1084"/>
    </defs>
    <g style="fill:#262626;" transform="translate(30.525 102.167109)scale(0.0825 -0.0825)">
     <use xlink:href="#ArialMT-1059"/>
     <use x="63.462891" xlink:href="#ArialMT-1087"/>
     <use x="117.613281" xlink:href="#ArialMT-1088"/>
     <use x="173.228516" xlink:href="#ArialMT-1072"/>
     <use x="228.84375" xlink:href="#ArialMT-1074"/>
     <use x="281.9375" xlink:href="#ArialMT-1083"/>
     <use x="340.287109" xlink:href="#ArialMT-1077"/>
     <use x="395.902344" xlink:href="#ArialMT-1085"/>
     <use x="451.126953" xlink:href="#ArialMT-1080"/>
     <use x="506.986328" xlink:href="#ArialMT-1077"/>
     <use x="562.601562" xlink:href="#ArialMT-32"/>
     <use x="590.384766" xlink:href="#ArialMT-1087"/>
     <use x="644.535156" xlink:href="#ArialMT-1088"/>
     <use x="700.150391" xlink:href="#ArialMT-1086"/>
     <use x="755.765625" xlink:href="#ArialMT-1077"/>
     <use x="811.380859" xlink:href="#ArialMT-1082"/>
     <use x="855.146484" xlink:href="#ArialMT-1090"/>
     <use x="900.931641" xlink:href="#ArialMT-1072"/>
     <use x="956.546875" xlink:href="#ArialMT-1084"/>
     <use x="1025.296875" xlink:href="#ArialMT-1080"/>
    </g>
   </g>
   <g id="patch_21">
    <path d="M 7.425 113.840859 
L 23.925 113.840859 
L 23.925 108.065859 
L 7.425 108.065859 
z
" style="fill:#003f5c;stroke:#edeff3;stroke-linejoin:miter;stroke-width:1.5;"/>
   </g>
   <g id="text_7">
    <!-- Креативность -->
    <defs>
     <path d="M 7.859375 71.578125 
L 17.328125 71.578125 
L 17.328125 40.234375 
Q 23.828125 40.234375 26.46875 42.75 
Q 29.109375 45.265625 33.203125 54.828125 
Q 36.1875 61.859375 38.109375 64.765625 
Q 40.046875 67.671875 43.609375 69.640625 
Q 47.171875 71.625 51.46875 71.625 
Q 56.9375 71.625 57.234375 71.53125 
L 57.234375 63.328125 
Q 56.734375 63.328125 55.328125 63.375 
Q 53.765625 63.421875 53.421875 63.421875 
Q 48.875 63.421875 46.6875 61.234375 
Q 44.4375 59.03125 41.546875 51.859375 
Q 37.9375 42.78125 35.4375 40.40625 
Q 32.953125 38.03125 29.5 36.625 
Q 36.421875 34.71875 43.171875 23.828125 
L 57.90625 0 
L 46.140625 0 
L 34.1875 19.4375 
Q 29.25 27.484375 25.921875 30.484375 
Q 22.609375 33.5 17.328125 33.5 
L 17.328125 0 
L 7.859375 0 
z
" id="ArialMT-1050"/>
     <path d="M 6.453125 51.859375 
L 15.234375 51.859375 
L 15.234375 31.59375 
L 26.375 31.59375 
Q 37.25 31.59375 43.140625 27.359375 
Q 49.03125 23.140625 49.03125 15.71875 
Q 49.03125 9.234375 44.109375 4.609375 
Q 39.203125 0 28.421875 0 
L 6.453125 0 
z
M 15.234375 7.234375 
L 24.46875 7.234375 
Q 32.8125 7.234375 36.375 9.28125 
Q 39.9375 11.328125 39.9375 15.671875 
Q 39.9375 19.046875 37.296875 21.671875 
Q 34.671875 24.3125 25.640625 24.3125 
L 15.234375 24.3125 
z
" id="ArialMT-1100"/>
    </defs>
    <g style="fill:#262626;" transform="translate(30.525 113.840859)scale(0.0825 -0.0825)">
     <use xlink:href="#ArialMT-1050"/>
     <use x="58.251953" xlink:href="#ArialMT-1088"/>
     <use x="113.867188" xlink:href="#ArialMT-1077"/>
     <use x="169.482422" xlink:href="#ArialMT-1072"/>
     <use x="225.066406" xlink:href="#ArialMT-1090"/>
     <use x="270.867188" xlink:href="#ArialMT-1080"/>
     <use x="326.726562" xlink:href="#ArialMT-1074"/>
     <use x="379.851562" xlink:href="#ArialMT-1085"/>
     <use x="435.076172" xlink:href="#ArialMT-1086"/>
     <use x="490.691406" xlink:href="#ArialMT-1089"/>
     <use x="540.691406" xlink:href="#ArialMT-1090"/>
     <use x="586.492188" xlink:href="#ArialMT-1100"/>
    </g>
   </g>
   <g id="patch_22">
    <path d="M 7.425 125.510742 
L 23.925 125.510742 
L 23.925 119.735742 
L 7.425 119.735742 
z
" style="fill:#58508d;stroke:#edeff3;stroke-linejoin:miter;stroke-width:1.5;"/>
   </g>
   <g id="text_8">
    <!-- CorelDRAW -->
    <defs>
     <path d="M 58.796875 25.09375 
L 68.265625 22.703125 
Q 65.28125 11.03125 57.546875 4.90625 
Q 49.8125 -1.21875 38.625 -1.21875 
Q 27.046875 -1.21875 19.796875 3.484375 
Q 12.546875 8.203125 8.765625 17.140625 
Q 4.984375 26.078125 4.984375 36.328125 
Q 4.984375 47.515625 9.25 55.828125 
Q 13.53125 64.15625 21.40625 68.46875 
Q 29.296875 72.796875 38.765625 72.796875 
Q 49.515625 72.796875 56.828125 67.328125 
Q 64.15625 61.859375 67.046875 51.953125 
L 57.71875 49.75 
Q 55.21875 57.5625 50.484375 61.125 
Q 45.75 64.703125 38.578125 64.703125 
Q 30.328125 64.703125 24.78125 60.734375 
Q 19.234375 56.78125 16.984375 50.109375 
Q 14.75 43.453125 14.75 36.375 
Q 14.75 27.25 17.40625 20.4375 
Q 20.0625 13.625 25.671875 10.25 
Q 31.296875 6.890625 37.84375 6.890625 
Q 45.796875 6.890625 51.3125 11.46875 
Q 56.84375 16.0625 58.796875 25.09375 
z
" id="ArialMT-67"/>
     <path d="M 6.390625 0 
L 6.390625 71.578125 
L 15.1875 71.578125 
L 15.1875 0 
z
" id="ArialMT-108"/>
     <path d="M 7.71875 0 
L 7.71875 71.578125 
L 32.375 71.578125 
Q 40.71875 71.578125 45.125 70.5625 
Q 51.265625 69.140625 55.609375 65.4375 
Q 61.28125 60.640625 64.078125 53.1875 
Q 66.890625 45.75 66.890625 36.1875 
Q 66.890625 28.03125 64.984375 21.734375 
Q 63.09375 15.4375 60.109375 11.296875 
Q 57.125 7.171875 53.578125 4.796875 
Q 50.046875 2.4375 45.046875 1.21875 
Q 40.046875 0 33.546875 0 
z
M 17.1875 8.453125 
L 32.46875 8.453125 
Q 39.546875 8.453125 43.578125 9.765625 
Q 47.609375 11.078125 50 13.484375 
Q 53.375 16.84375 55.25 22.53125 
Q 57.125 28.21875 57.125 36.328125 
Q 57.125 47.5625 53.4375 53.59375 
Q 49.75 59.625 44.484375 61.671875 
Q 40.671875 63.140625 32.234375 63.140625 
L 17.1875 63.140625 
z
" id="ArialMT-68"/>
     <path d="M 7.859375 0 
L 7.859375 71.578125 
L 39.59375 71.578125 
Q 49.171875 71.578125 54.140625 69.640625 
Q 59.125 67.71875 62.109375 62.828125 
Q 65.09375 57.953125 65.09375 52.046875 
Q 65.09375 44.4375 60.15625 39.203125 
Q 55.21875 33.984375 44.921875 32.5625 
Q 48.6875 30.765625 50.640625 29 
Q 54.78125 25.203125 58.5 19.484375 
L 70.953125 0 
L 59.03125 0 
L 49.5625 14.890625 
Q 45.40625 21.34375 42.71875 24.75 
Q 40.046875 28.171875 37.921875 29.53125 
Q 35.796875 30.90625 33.59375 31.453125 
Q 31.984375 31.78125 28.328125 31.78125 
L 17.328125 31.78125 
L 17.328125 0 
z
M 17.328125 39.984375 
L 37.703125 39.984375 
Q 44.1875 39.984375 47.84375 41.328125 
Q 51.515625 42.671875 53.421875 45.625 
Q 55.328125 48.578125 55.328125 52.046875 
Q 55.328125 57.125 51.640625 60.390625 
Q 47.953125 63.671875 39.984375 63.671875 
L 17.328125 63.671875 
z
" id="ArialMT-82"/>
     <path d="M -0.140625 0 
L 27.34375 71.578125 
L 37.546875 71.578125 
L 66.84375 0 
L 56.0625 0 
L 47.703125 21.6875 
L 17.78125 21.6875 
L 9.90625 0 
z
M 20.515625 29.390625 
L 44.78125 29.390625 
L 37.3125 49.21875 
Q 33.890625 58.25 32.234375 64.0625 
Q 30.859375 57.171875 28.375 50.390625 
z
" id="ArialMT-65"/>
     <path d="M 20.21875 0 
L 1.21875 71.578125 
L 10.9375 71.578125 
L 21.828125 24.65625 
Q 23.578125 17.28125 24.859375 10.015625 
Q 27.59375 21.484375 28.078125 23.25 
L 41.703125 71.578125 
L 53.125 71.578125 
L 63.375 35.359375 
Q 67.234375 21.875 68.953125 10.015625 
Q 70.3125 16.796875 72.515625 25.59375 
L 83.734375 71.578125 
L 93.265625 71.578125 
L 73.640625 0 
L 64.5 0 
L 49.421875 54.546875 
Q 47.515625 61.375 47.171875 62.9375 
Q 46.046875 58.015625 45.0625 54.546875 
L 29.890625 0 
z
" id="ArialMT-87"/>
    </defs>
    <g style="fill:#262626;" transform="translate(30.525 125.510742)scale(0.0825 -0.0825)">
     <use xlink:href="#ArialMT-67"/>
     <use x="72.216797" xlink:href="#ArialMT-111"/>
     <use x="127.832031" xlink:href="#ArialMT-114"/>
     <use x="161.132812" xlink:href="#ArialMT-101"/>
     <use x="216.748047" xlink:href="#ArialMT-108"/>
     <use x="238.964844" xlink:href="#ArialMT-68"/>
     <use x="311.181641" xlink:href="#ArialMT-82"/>
     <use x="383.398438" xlink:href="#ArialMT-65"/>
     <use x="450.050781" xlink:href="#ArialMT-87"/>
    </g>
   </g>
   <g id="patch_23">
    <path d="M 7.425 137.180625 
L 23.925 137.180625 
L 23.925 131.405625 
L 7.425 131.405625 
z
" style="fill:#ff6361;stroke:#edeff3;stroke-linejoin:miter;stroke-width:1.5;"/>
   </g>
   <g id="text_9">
    <!-- Графический дизайн -->
    <defs>
     <path d="M 7.859375 71.578125 
L 54.15625 71.578125 
L 54.15625 63.140625 
L 17.328125 63.140625 
L 17.328125 0 
L 7.859375 0 
z
" id="ArialMT-1043"/>
     <path d="M 36.765625 71.578125 
L 45.5625 71.578125 
L 45.5625 46.828125 
Q 48.296875 49.953125 51.5625 51.484375 
Q 54.828125 53.03125 58.59375 53.03125 
Q 67.828125 53.03125 73.21875 45.328125 
Q 78.609375 37.640625 78.609375 25.984375 
Q 78.609375 13.8125 72.796875 6.3125 
Q 67 -1.171875 58.34375 -1.171875 
Q 55.515625 -1.171875 52.578125 -0.28125 
Q 49.65625 0.59375 45.5625 4.5 
L 45.5625 -19.875 
L 36.765625 -19.875 
L 36.765625 4.5 
Q 34.125 1.65625 30.921875 0.234375 
Q 27.734375 -1.171875 24.03125 -1.171875 
Q 15.875 -1.171875 9.765625 5.984375 
Q 3.65625 13.140625 3.65625 26.46875 
Q 3.65625 37.75 9.171875 45.390625 
Q 14.703125 53.03125 24.03125 53.03125 
Q 27.9375 53.03125 31.109375 51.484375 
Q 34.28125 49.953125 36.765625 46.828125 
z
M 45.515625 25.734375 
Q 45.515625 14.015625 48.734375 9.984375 
Q 51.953125 5.953125 56.78125 5.953125 
Q 62.15625 5.953125 65.9375 10.90625 
Q 69.734375 15.875 69.734375 26.3125 
Q 69.734375 36.1875 66.234375 41.015625 
Q 62.75 45.84375 57.28125 45.84375 
Q 51.421875 45.84375 48.46875 40.8125 
Q 45.515625 35.796875 45.515625 25.734375 
z
M 12.59375 26.703125 
Q 12.59375 15.71875 16.28125 10.890625 
Q 19.96875 6.0625 25.4375 6.0625 
Q 31.15625 6.0625 33.984375 10.859375 
Q 36.8125 15.671875 36.8125 25.296875 
Q 36.8125 35.546875 33.828125 40.671875 
Q 30.859375 45.796875 24.859375 45.796875 
Q 19.4375 45.796875 16.015625 40.796875 
Q 12.59375 35.796875 12.59375 26.703125 
z
" id="ArialMT-1092"/>
     <path d="M 3.375 51.859375 
L 12.15625 51.859375 
L 12.15625 42.046875 
Q 12.15625 35.6875 12.90625 32.828125 
Q 13.671875 29.984375 16.546875 27.859375 
Q 19.4375 25.734375 23.78125 25.734375 
Q 28.765625 25.734375 36.671875 28.375 
L 36.671875 51.859375 
L 45.453125 51.859375 
L 45.453125 0 
L 36.671875 0 
L 36.671875 20.90625 
Q 28.5625 18.359375 21.53125 18.359375 
Q 15.625 18.359375 11.109375 21.359375 
Q 6.59375 24.359375 4.984375 28.703125 
Q 3.375 33.0625 3.375 38.28125 
z
" id="ArialMT-1095"/>
    </defs>
    <g style="fill:#262626;" transform="translate(30.525 137.180625)scale(0.0825 -0.0825)">
     <use xlink:href="#ArialMT-1043"/>
     <use x="54.072266" xlink:href="#ArialMT-1088"/>
     <use x="109.6875" xlink:href="#ArialMT-1072"/>
     <use x="165.302734" xlink:href="#ArialMT-1092"/>
     <use x="247.578125" xlink:href="#ArialMT-1080"/>
     <use x="303.4375" xlink:href="#ArialMT-1095"/>
     <use x="355.537109" xlink:href="#ArialMT-1077"/>
     <use x="411.152344" xlink:href="#ArialMT-1089"/>
     <use x="461.152344" xlink:href="#ArialMT-1082"/>
     <use x="504.902344" xlink:href="#ArialMT-1080"/>
     <use x="560.761719" xlink:href="#ArialMT-1081"/>
     <use x="616.621094" xlink:href="#ArialMT-32"/>
     <use x="644.404297" xlink:href="#ArialMT-1076"/>
     <use x="702.753906" xlink:href="#ArialMT-1080"/>
     <use x="758.613281" xlink:href="#ArialMT-1079"/>
     <use x="804.462891" xlink:href="#ArialMT-1072"/>
     <use x="860.078125" xlink:href="#ArialMT-1081"/>
     <use x="915.9375" xlink:href="#ArialMT-1085"/>
    </g>
   </g>
   <g id="patch_24">
    <path d="M 7.425 148.850508 
L 23.925 148.850508 
L 23.925 143.075508 
L 7.425 143.075508 
z
" style="fill:#9bbfe0;stroke:#edeff3;stroke-linejoin:miter;stroke-width:1.5;"/>
   </g>
   <g id="text_10">
    <!-- Adobe Illustrator -->
    <defs>
     <path d="M 40.234375 0 
L 40.234375 6.546875 
Q 35.296875 -1.171875 25.734375 -1.171875 
Q 19.53125 -1.171875 14.328125 2.25 
Q 9.125 5.671875 6.265625 11.796875 
Q 3.421875 17.921875 3.421875 25.875 
Q 3.421875 33.640625 6 39.96875 
Q 8.59375 46.296875 13.765625 49.65625 
Q 18.953125 53.03125 25.34375 53.03125 
Q 30.03125 53.03125 33.6875 51.046875 
Q 37.359375 49.078125 39.65625 45.90625 
L 39.65625 71.578125 
L 48.390625 71.578125 
L 48.390625 0 
z
M 12.453125 25.875 
Q 12.453125 15.921875 16.640625 10.984375 
Q 20.84375 6.0625 26.5625 6.0625 
Q 32.328125 6.0625 36.34375 10.765625 
Q 40.375 15.484375 40.375 25.140625 
Q 40.375 35.796875 36.265625 40.765625 
Q 32.171875 45.75 26.171875 45.75 
Q 20.3125 45.75 16.375 40.96875 
Q 12.453125 36.1875 12.453125 25.875 
z
" id="ArialMT-100"/>
     <path d="M 14.703125 0 
L 6.546875 0 
L 6.546875 71.578125 
L 15.328125 71.578125 
L 15.328125 46.046875 
Q 20.90625 53.03125 29.546875 53.03125 
Q 34.328125 53.03125 38.59375 51.09375 
Q 42.875 49.171875 45.625 45.671875 
Q 48.390625 42.1875 49.953125 37.25 
Q 51.515625 32.328125 51.515625 26.703125 
Q 51.515625 13.375 44.921875 6.09375 
Q 38.328125 -1.171875 29.109375 -1.171875 
Q 19.921875 -1.171875 14.703125 6.5 
z
M 14.59375 26.3125 
Q 14.59375 17 17.140625 12.84375 
Q 21.296875 6.0625 28.375 6.0625 
Q 34.125 6.0625 38.328125 11.0625 
Q 42.53125 16.0625 42.53125 25.984375 
Q 42.53125 36.140625 38.5 40.96875 
Q 34.46875 45.796875 28.765625 45.796875 
Q 23 45.796875 18.796875 40.796875 
Q 14.59375 35.796875 14.59375 26.3125 
z
" id="ArialMT-98"/>
     <path d="M 9.328125 0 
L 9.328125 71.578125 
L 18.796875 71.578125 
L 18.796875 0 
z
" id="ArialMT-73"/>
     <path d="M 40.578125 0 
L 40.578125 7.625 
Q 34.515625 -1.171875 24.125 -1.171875 
Q 19.53125 -1.171875 15.546875 0.578125 
Q 11.578125 2.34375 9.640625 5 
Q 7.71875 7.671875 6.9375 11.53125 
Q 6.390625 14.109375 6.390625 19.734375 
L 6.390625 51.859375 
L 15.1875 51.859375 
L 15.1875 23.09375 
Q 15.1875 16.21875 15.71875 13.8125 
Q 16.546875 10.359375 19.234375 8.375 
Q 21.921875 6.390625 25.875 6.390625 
Q 29.828125 6.390625 33.296875 8.421875 
Q 36.765625 10.453125 38.203125 13.9375 
Q 39.65625 17.4375 39.65625 24.078125 
L 39.65625 51.859375 
L 48.4375 51.859375 
L 48.4375 0 
z
" id="ArialMT-117"/>
     <path d="M 3.078125 15.484375 
L 11.765625 16.84375 
Q 12.5 11.625 15.84375 8.84375 
Q 19.1875 6.0625 25.203125 6.0625 
Q 31.25 6.0625 34.171875 8.515625 
Q 37.109375 10.984375 37.109375 14.3125 
Q 37.109375 17.28125 34.515625 19 
Q 32.71875 20.171875 25.53125 21.96875 
Q 15.875 24.421875 12.140625 26.203125 
Q 8.40625 27.984375 6.46875 31.125 
Q 4.546875 34.28125 4.546875 38.09375 
Q 4.546875 41.546875 6.125 44.5 
Q 7.71875 47.46875 10.453125 49.421875 
Q 12.5 50.921875 16.03125 51.96875 
Q 19.578125 53.03125 23.640625 53.03125 
Q 29.734375 53.03125 34.34375 51.265625 
Q 38.96875 49.515625 41.15625 46.5 
Q 43.359375 43.5 44.1875 38.484375 
L 35.59375 37.3125 
Q 35.015625 41.3125 32.203125 43.546875 
Q 29.390625 45.796875 24.265625 45.796875 
Q 18.21875 45.796875 15.625 43.796875 
Q 13.03125 41.796875 13.03125 39.109375 
Q 13.03125 37.40625 14.109375 36.03125 
Q 15.1875 34.625 17.484375 33.6875 
Q 18.796875 33.203125 25.25 31.453125 
Q 34.578125 28.953125 38.25 27.359375 
Q 41.9375 25.78125 44.03125 22.75 
Q 46.140625 19.734375 46.140625 15.234375 
Q 46.140625 10.84375 43.578125 6.953125 
Q 41.015625 3.078125 36.171875 0.953125 
Q 31.34375 -1.171875 25.25 -1.171875 
Q 15.140625 -1.171875 9.84375 3.03125 
Q 4.546875 7.234375 3.078125 15.484375 
z
" id="ArialMT-115"/>
     <path d="M 40.4375 6.390625 
Q 35.546875 2.25 31.03125 0.53125 
Q 26.515625 -1.171875 21.34375 -1.171875 
Q 12.796875 -1.171875 8.203125 3 
Q 3.609375 7.171875 3.609375 13.671875 
Q 3.609375 17.484375 5.34375 20.625 
Q 7.078125 23.78125 9.890625 25.6875 
Q 12.703125 27.59375 16.21875 28.5625 
Q 18.796875 29.25 24.03125 29.890625 
Q 34.671875 31.15625 39.703125 32.90625 
Q 39.75 34.71875 39.75 35.203125 
Q 39.75 40.578125 37.25 42.78125 
Q 33.890625 45.75 27.25 45.75 
Q 21.046875 45.75 18.09375 43.578125 
Q 15.140625 41.40625 13.71875 35.890625 
L 5.125 37.0625 
Q 6.296875 42.578125 8.984375 45.96875 
Q 11.671875 49.359375 16.75 51.1875 
Q 21.828125 53.03125 28.515625 53.03125 
Q 35.15625 53.03125 39.296875 51.46875 
Q 43.453125 49.90625 45.40625 47.53125 
Q 47.359375 45.171875 48.140625 41.546875 
Q 48.578125 39.3125 48.578125 33.453125 
L 48.578125 21.734375 
Q 48.578125 9.46875 49.140625 6.21875 
Q 49.703125 2.984375 51.375 0 
L 42.1875 0 
Q 40.828125 2.734375 40.4375 6.390625 
z
M 39.703125 26.03125 
Q 34.90625 24.078125 25.34375 22.703125 
Q 19.921875 21.921875 17.671875 20.9375 
Q 15.4375 19.96875 14.203125 18.09375 
Q 12.984375 16.21875 12.984375 13.921875 
Q 12.984375 10.40625 15.640625 8.0625 
Q 18.3125 5.71875 23.4375 5.71875 
Q 28.515625 5.71875 32.46875 7.9375 
Q 36.421875 10.15625 38.28125 14.015625 
Q 39.703125 17 39.703125 22.796875 
z
" id="ArialMT-97"/>
    </defs>
    <g style="fill:#262626;" transform="translate(30.525 148.850508)scale(0.0825 -0.0825)">
     <use xlink:href="#ArialMT-65"/>
     <use x="66.699219" xlink:href="#ArialMT-100"/>
     <use x="122.314453" xlink:href="#ArialMT-111"/>
     <use x="177.929688" xlink:href="#ArialMT-98"/>
     <use x="233.544922" xlink:href="#ArialMT-101"/>
     <use x="289.160156" xlink:href="#ArialMT-32"/>
     <use x="316.943359" xlink:href="#ArialMT-73"/>
     <use x="344.726562" xlink:href="#ArialMT-108"/>
     <use x="366.943359" xlink:href="#ArialMT-108"/>
     <use x="389.160156" xlink:href="#ArialMT-117"/>
     <use x="444.775391" xlink:href="#ArialMT-115"/>
     <use x="494.775391" xlink:href="#ArialMT-116"/>
     <use x="522.558594" xlink:href="#ArialMT-114"/>
     <use x="555.859375" xlink:href="#ArialMT-97"/>
     <use x="611.474609" xlink:href="#ArialMT-116"/>
     <use x="639.257812" xlink:href="#ArialMT-111"/>
     <use x="694.873047" xlink:href="#ArialMT-114"/>
    </g>
   </g>
   <g id="patch_25">
    <path d="M 7.425 160.520391 
L 23.925 160.520391 
L 23.925 154.745391 
L 7.425 154.745391 
z
" style="fill:#e8a09a;stroke:#edeff3;stroke-linejoin:miter;stroke-width:1.5;"/>
   </g>
   <g id="text_11">
    <!-- Пользователь ПК -->
    <g style="fill:#262626;" transform="translate(30.525 160.520391)scale(0.0825 -0.0825)">
     <use xlink:href="#ArialMT-1055"/>
     <use x="71.875" xlink:href="#ArialMT-1086"/>
     <use x="127.458984" xlink:href="#ArialMT-1083"/>
     <use x="185.808594" xlink:href="#ArialMT-1100"/>
     <use x="237.908203" xlink:href="#ArialMT-1079"/>
     <use x="283.742188" xlink:href="#ArialMT-1086"/>
     <use x="339.357422" xlink:href="#ArialMT-1074"/>
     <use x="392.466797" xlink:href="#ArialMT-1072"/>
     <use x="448.050781" xlink:href="#ArialMT-1090"/>
     <use x="493.835938" xlink:href="#ArialMT-1077"/>
     <use x="549.404297" xlink:href="#ArialMT-1083"/>
     <use x="607.753906" xlink:href="#ArialMT-1100"/>
     <use x="659.853516" xlink:href="#ArialMT-32"/>
     <use x="687.636719" xlink:href="#ArialMT-1055"/>
     <use x="759.511719" xlink:href="#ArialMT-1050"/>
    </g>
   </g>
   <g id="patch_26">
    <path d="M 7.425 172.190273 
L 23.925 172.190273 
L 23.925 166.415273 
L 7.425 166.415273 
z
" style="fill:#fbe29f;stroke:#edeff3;stroke-linejoin:miter;stroke-width:1.5;"/>
   </g>
   <g id="text_12">
    <!-- Adobe Photoshop -->
    <defs>
     <path d="M 6.59375 0 
L 6.59375 71.578125 
L 15.375 71.578125 
L 15.375 45.90625 
Q 21.53125 53.03125 30.90625 53.03125 
Q 36.671875 53.03125 40.921875 50.75 
Q 45.171875 48.484375 47 44.484375 
Q 48.828125 40.484375 48.828125 32.859375 
L 48.828125 0 
L 40.046875 0 
L 40.046875 32.859375 
Q 40.046875 39.453125 37.1875 42.453125 
Q 34.328125 45.453125 29.109375 45.453125 
Q 25.203125 45.453125 21.75 43.421875 
Q 18.3125 41.40625 16.84375 37.9375 
Q 15.375 34.46875 15.375 28.375 
L 15.375 0 
z
" id="ArialMT-104"/>
     <path d="M 6.59375 -19.875 
L 6.59375 51.859375 
L 14.59375 51.859375 
L 14.59375 45.125 
Q 17.4375 49.078125 21 51.046875 
Q 24.5625 53.03125 29.640625 53.03125 
Q 36.28125 53.03125 41.359375 49.609375 
Q 46.4375 46.1875 49.015625 39.953125 
Q 51.609375 33.734375 51.609375 26.3125 
Q 51.609375 18.359375 48.75 11.984375 
Q 45.90625 5.609375 40.453125 2.21875 
Q 35.015625 -1.171875 29 -1.171875 
Q 24.609375 -1.171875 21.109375 0.6875 
Q 17.625 2.546875 15.375 5.375 
L 15.375 -19.875 
z
M 14.546875 25.640625 
Q 14.546875 15.625 18.59375 10.84375 
Q 22.65625 6.0625 28.421875 6.0625 
Q 34.28125 6.0625 38.453125 11.015625 
Q 42.625 15.96875 42.625 26.375 
Q 42.625 36.28125 38.546875 41.203125 
Q 34.46875 46.140625 28.8125 46.140625 
Q 23.1875 46.140625 18.859375 40.890625 
Q 14.546875 35.640625 14.546875 25.640625 
z
" id="ArialMT-112"/>
    </defs>
    <g style="fill:#262626;" transform="translate(30.525 172.190273)scale(0.0825 -0.0825)">
     <use xlink:href="#ArialMT-65"/>
     <use x="66.699219" xlink:href="#ArialMT-100"/>
     <use x="122.314453" xlink:href="#ArialMT-111"/>
     <use x="177.929688" xlink:href="#ArialMT-98"/>
     <use x="233.544922" xlink:href="#ArialMT-101"/>
     <use x="289.160156" xlink:href="#ArialMT-32"/>
     <use x="316.943359" xlink:href="#ArialMT-80"/>
     <use x="383.642578" xlink:href="#ArialMT-104"/>
     <use x="439.257812" xlink:href="#ArialMT-111"/>
     <use x="494.873047" xlink:href="#ArialMT-116"/>
     <use x="522.65625" xlink:href="#ArialMT-111"/>
     <use x="578.271484" xlink:href="#ArialMT-115"/>
     <use x="628.271484" xlink:href="#ArialMT-104"/>
     <use x="683.886719" xlink:href="#ArialMT-111"/>
     <use x="739.501953" xlink:href="#ArialMT-112"/>
    </g>
   </g>
  </g>
 </g>
 <defs>
  <clipPath id="p91808884b9">
   <rect height="217.44" width="334.8" x="57.075" y="7.2"/>
  </clipPath>
 </defs>
</svg>
