<?xml version="1.0" encoding="utf-8" standalone="no"?>
<!DOCTYPE svg PUBLIC "-//W3C//DTD SVG 1.1//EN"
  "http://www.w3.org/Graphics/SVG/1.1/DTD/svg11.dtd">
<!-- Created with matplotlib (https://matplotlib.org/) -->
<svg height="280.512pt" version="1.1" viewBox="0 0 424.995 280.512" width="424.995pt" xmlns="http://www.w3.org/2000/svg" xmlns:xlink="http://www.w3.org/1999/xlink">
 <metadata>
  <rdf:RDF xmlns:cc="http://creativecommons.org/ns#" xmlns:dc="http://purl.org/dc/elements/1.1/" xmlns:rdf="http://www.w3.org/1999/02/22-rdf-syntax-ns#">
   <cc:Work>
    <dc:type rdf:resource="http://purl.org/dc/dcmitype/StillImage"/>
    <dc:date>2020-11-28T19:36:57.262419</dc:date>
    <dc:format>image/svg+xml</dc:format>
    <dc:creator>
     <cc:Agent>
      <dc:title>Matplotlib v3.3.3, https://matplotlib.org/</dc:title>
     </cc:Agent>
    </dc:creator>
   </cc:Work>
  </rdf:RDF>
 </metadata>
 <defs>
  <style type="text/css">*{stroke-linecap:butt;stroke-linejoin:round;}</style>
 </defs>
 <g id="figure_1">
  <g id="patch_1">
   <path d="M 0 280.512 
L 424.995 280.512 
L 424.995 0 
L 0 0 
z
" style="fill:none;"/>
  </g>
  <g id="axes_1">
   <g id="matplotlib.axis_1"/>
   <g id="matplotlib.axis_2"/>
   <g id="patch_2">
    <path d="M 239.824613 19.296002 
C 239.824613 19.296002 239.824613 19.296002 239.824613 19.296002 
L 239.824613 139.890183 
L 239.824613 19.296002 
z
" style="fill:#f66d44;stroke:#edeff3;stroke-linejoin:miter;stroke-width:1.5;"/>
   </g>
   <g id="patch_3">
    <path d="M 239.824613 19.296002 
C 239.673693 19.296002 239.522774 19.296285 239.371855 19.296852 
C 239.220937 19.297418 239.07002 19.298268 238.919104 19.299401 
L 239.824613 139.890183 
L 239.824613 19.296002 
z
" style="fill:#feae65;stroke:#edeff3;stroke-linejoin:miter;stroke-width:1.5;"/>
   </g>
   <g id="patch_4">
    <path d="M 238.919104 19.299401 
C 237.9834 19.306428 237.04781 19.324344 236.112523 19.353147 
C 235.177236 19.381951 234.242316 19.421639 233.307952 19.472204 
L 239.824613 139.890183 
L 238.919104 19.299401 
z
" style="fill:#e6f69d;stroke:#edeff3;stroke-linejoin:miter;stroke-width:1.5;"/>
   </g>
   <g id="patch_5">
    <path d="M 233.307952 19.472204 
C 230.941382 19.600276 228.579101 19.798085 226.224189 20.065373 
C 223.869276 20.332662 221.522754 20.669314 219.187681 21.074891 
L 239.824613 139.890183 
L 233.307952 19.472204 
z
" style="fill:#aadea7;stroke:#edeff3;stroke-linejoin:miter;stroke-width:1.5;"/>
   </g>
   <g id="patch_6">
    <path d="M 219.187681 21.074891 
C 214.642533 21.864334 210.146426 22.913932 205.721534 24.218507 
C 201.296641 25.523083 196.95025 27.080489 192.703794 28.883044 
L 239.824613 139.890183 
L 219.187681 21.074891 
z
" style="fill:#64c2a6;stroke:#edeff3;stroke-linejoin:miter;stroke-width:1.5;"/>
   </g>
   <g id="patch_7">
    <path d="M 192.703794 28.883044 
C 187.969858 30.892527 183.369308 33.202774 178.930332 35.799631 
C 174.491356 38.396487 170.223037 41.274639 166.151528 44.416453 
L 239.824613 139.890183 
L 192.703794 28.883044 
z
" style="fill:#2d87bb;stroke:#edeff3;stroke-linejoin:miter;stroke-width:1.5;"/>
   </g>
   <g id="patch_8">
    <path d="M 166.151528 44.416453 
C 156.157007 52.128806 147.435224 61.362938 140.305314 71.780963 
C 133.175405 82.198989 127.725406 93.672271 124.154738 105.780994 
L 239.824613 139.890183 
L 166.151528 44.416453 
z
" style="fill:#003f5c;stroke:#edeff3;stroke-linejoin:miter;stroke-width:1.5;"/>
   </g>
   <g id="patch_9">
    <path d="M 124.154738 105.780994 
C 118.948333 123.436774 117.852836 142.052455 120.95246 160.197028 
C 124.052085 178.341601 131.265317 195.537907 142.037669 210.464047 
L 239.824613 139.890183 
L 124.154738 105.780994 
z
" style="fill:#58508d;stroke:#edeff3;stroke-linejoin:miter;stroke-width:1.5;"/>
   </g>
   <g id="patch_10">
    <path d="M 142.037669 210.464047 
C 153.7136 226.642183 169.223899 239.672723 187.173326 248.383494 
C 205.122752 257.094266 224.956452 261.216 244.89027 260.377924 
L 239.824613 139.890183 
L 142.037669 210.464047 
z
" style="fill:#ff6361;stroke:#edeff3;stroke-linejoin:miter;stroke-width:1.5;"/>
   </g>
   <g id="patch_11">
    <path d="M 244.89027 260.377924 
C 264.989226 259.532905 284.560903 253.672005 301.816203 243.330984 
C 319.071504 232.989963 333.468121 218.493823 343.690023 201.167692 
L 239.824613 139.890183 
L 244.89027 260.377924 
z
" style="fill:#9bbfe0;stroke:#edeff3;stroke-linejoin:miter;stroke-width:1.5;"/>
   </g>
   <g id="patch_12">
    <path d="M 343.690023 201.167692 
C 354.440947 182.944869 360.209216 162.209628 360.41319 141.052785 
C 360.617164 119.895942 355.249751 99.05334 344.852167 80.626624 
L 239.824613 139.890183 
L 343.690023 201.167692 
z
" style="fill:#e8a09a;stroke:#edeff3;stroke-linejoin:miter;stroke-width:1.5;"/>
   </g>
   <g id="patch_13">
    <path d="M 344.852167 80.626624 
C 334.350874 62.016114 319.089304 46.526948 300.636269 35.751338 
C 282.183235 24.975728 261.193465 19.296 239.824603 19.296002 
L 239.824613 139.890183 
L 344.852167 80.626624 
z
" style="fill:#fbe29f;stroke:#edeff3;stroke-linejoin:miter;stroke-width:1.5;"/>
   </g>
   <g id="patch_14">
    <path clip-path="url(#p55ef3391da)" d="M 239.824613 224.30611 
C 262.211978 224.30611 283.685429 215.411516 299.515687 199.581258 
C 315.345945 183.751 324.24054 162.277549 324.24054 139.890183 
C 324.24054 117.502818 315.345945 96.029367 299.515687 80.199109 
C 283.685429 64.368851 262.211978 55.474256 239.824613 55.474256 
C 217.437247 55.474256 195.963796 64.368851 180.133538 80.199109 
C 164.30328 96.029367 155.408686 117.502818 155.408686 139.890183 
C 155.408686 162.277549 164.30328 183.751 180.133538 199.581258 
C 195.963796 215.411516 217.437247 224.30611 239.824613 224.30611 
z
" style="fill:#edeff3;stroke:#edeff3;stroke-linejoin:miter;stroke-width:1.5;"/>
   </g>
  </g>
  <g id="legend_1">
   <g id="patch_15">
    <path d="M 10.5 83.101711 
L 27 83.101711 
L 27 77.326711 
L 10.5 77.326711 
z
" style="fill:#f66d44;stroke:#edeff3;stroke-linejoin:miter;stroke-width:1.5;"/>
   </g>
   <g id="text_1">
    <!-- Организация мероприятий -->
    <g style="fill:#262626;" transform="translate(33.6 83.101711)scale(0.0825 -0.0825)">
     <defs>
      <path d="M 39.40625 66.21875 
Q 28.65625 66.21875 22.328125 58.203125 
Q 16.015625 50.203125 16.015625 36.375 
Q 16.015625 22.609375 22.328125 14.59375 
Q 28.65625 6.59375 39.40625 6.59375 
Q 50.140625 6.59375 56.421875 14.59375 
Q 62.703125 22.609375 62.703125 36.375 
Q 62.703125 50.203125 56.421875 58.203125 
Q 50.140625 66.21875 39.40625 66.21875 
z
M 39.40625 74.21875 
Q 54.734375 74.21875 63.90625 63.9375 
Q 73.09375 53.65625 73.09375 36.375 
Q 73.09375 19.140625 63.90625 8.859375 
Q 54.734375 -1.421875 39.40625 -1.421875 
Q 24.03125 -1.421875 14.8125 8.828125 
Q 5.609375 19.09375 5.609375 36.375 
Q 5.609375 53.65625 14.8125 63.9375 
Q 24.03125 74.21875 39.40625 74.21875 
z
" id="DejaVuSans-1054"/>
      <path d="M 18.109375 8.203125 
L 18.109375 -20.796875 
L 9.078125 -20.796875 
L 9.078125 54.6875 
L 18.109375 54.6875 
L 18.109375 46.390625 
Q 20.953125 51.265625 25.265625 53.625 
Q 29.59375 56 35.59375 56 
Q 45.5625 56 51.78125 48.09375 
Q 58.015625 40.1875 58.015625 27.296875 
Q 58.015625 14.40625 51.78125 6.484375 
Q 45.5625 -1.421875 35.59375 -1.421875 
Q 29.59375 -1.421875 25.265625 0.953125 
Q 20.953125 3.328125 18.109375 8.203125 
z
M 48.6875 27.296875 
Q 48.6875 37.203125 44.609375 42.84375 
Q 40.53125 48.484375 33.40625 48.484375 
Q 26.265625 48.484375 22.1875 42.84375 
Q 18.109375 37.203125 18.109375 27.296875 
Q 18.109375 17.390625 22.1875 11.75 
Q 26.265625 6.109375 33.40625 6.109375 
Q 40.53125 6.109375 44.609375 11.75 
Q 48.6875 17.390625 48.6875 27.296875 
z
" id="DejaVuSans-1088"/>
      <path d="M 9.078125 0 
L 9.078125 54.6875 
L 47.65625 54.6875 
L 47.65625 47.515625 
L 18.109375 47.515625 
L 18.109375 0 
z
" id="DejaVuSans-1075"/>
      <path d="M 34.28125 27.484375 
Q 23.390625 27.484375 19.1875 25 
Q 14.984375 22.515625 14.984375 16.5 
Q 14.984375 11.71875 18.140625 8.90625 
Q 21.296875 6.109375 26.703125 6.109375 
Q 34.1875 6.109375 38.703125 11.40625 
Q 43.21875 16.703125 43.21875 25.484375 
L 43.21875 27.484375 
z
M 52.203125 31.203125 
L 52.203125 0 
L 43.21875 0 
L 43.21875 8.296875 
Q 40.140625 3.328125 35.546875 0.953125 
Q 30.953125 -1.421875 24.3125 -1.421875 
Q 15.921875 -1.421875 10.953125 3.296875 
Q 6 8.015625 6 15.921875 
Q 6 25.140625 12.171875 29.828125 
Q 18.359375 34.515625 30.609375 34.515625 
L 43.21875 34.515625 
L 43.21875 35.40625 
Q 43.21875 41.609375 39.140625 45 
Q 35.0625 48.390625 27.6875 48.390625 
Q 23 48.390625 18.546875 47.265625 
Q 14.109375 46.140625 10.015625 43.890625 
L 10.015625 52.203125 
Q 14.9375 54.109375 19.578125 55.046875 
Q 24.21875 56 28.609375 56 
Q 40.484375 56 46.34375 49.84375 
Q 52.203125 43.703125 52.203125 31.203125 
z
" id="DejaVuSans-1072"/>
      <path d="M 9.078125 54.6875 
L 18.109375 54.6875 
L 18.109375 32.375 
L 47.265625 32.375 
L 47.265625 54.6875 
L 56.296875 54.6875 
L 56.296875 0 
L 47.265625 0 
L 47.265625 25.203125 
L 18.109375 25.203125 
L 18.109375 0 
L 9.078125 0 
z
" id="DejaVuSans-1085"/>
      <path d="M 55.90625 54.6875 
L 55.90625 0 
L 46.96875 0 
L 46.96875 43.890625 
L 20.609375 0 
L 9.078125 0 
L 9.078125 54.6875 
L 18.015625 54.6875 
L 18.015625 10.890625 
L 44.34375 54.6875 
z
" id="DejaVuSans-1080"/>
      <path d="M 34.46875 29.5 
Q 40.53125 28.328125 43.890625 24.75 
Q 47.265625 21.1875 47.265625 15.921875 
Q 47.265625 7.46875 40.96875 3.015625 
Q 34.671875 -1.421875 23.046875 -1.421875 
Q 19.140625 -1.421875 15.015625 -0.734375 
Q 10.890625 -0.046875 6.5 1.3125 
L 6.5 9.671875 
Q 9.96875 7.859375 14.109375 6.953125 
Q 18.265625 6.0625 22.796875 6.0625 
Q 30.171875 6.0625 34.296875 8.796875 
Q 38.421875 11.53125 38.421875 15.921875 
Q 38.421875 20.21875 34.765625 22.828125 
Q 31.109375 25.4375 24.421875 25.4375 
L 17.1875 25.4375 
L 17.1875 32.859375 
L 24.75 32.859375 
Q 30.421875 32.859375 33.71875 35.03125 
Q 37.015625 37.203125 37.015625 40.625 
Q 37.015625 43.75 33.609375 46 
Q 30.21875 48.25 24.421875 48.25 
Q 20.953125 48.25 17.015625 47.609375 
Q 13.09375 46.96875 8.34375 45.5625 
L 8.34375 53.71875 
Q 13.140625 54.890625 17.28125 55.46875 
Q 21.4375 56.0625 25.140625 56.0625 
Q 34.71875 56.0625 40.25 52.21875 
Q 45.796875 48.390625 45.796875 41.5 
Q 45.796875 36.96875 42.859375 33.8125 
Q 39.9375 30.671875 34.46875 29.5 
z
" id="DejaVuSans-1079"/>
      <path d="M 56.296875 0 
L 9.078125 0 
L 9.078125 54.6875 
L 18.109375 54.6875 
L 18.109375 7.171875 
L 47.265625 7.171875 
L 47.265625 54.6875 
L 56.296875 54.6875 
L 56.296875 7.171875 
L 63.484375 7.171875 
L 63.484375 -13.8125 
L 56.296875 -13.8125 
z
" id="DejaVuSans-1094"/>
      <path d="M 18.453125 38.921875 
Q 18.453125 34.859375 21.578125 32.5625 
Q 24.703125 30.28125 30.515625 30.28125 
L 42.625 30.28125 
L 42.625 47.515625 
L 30.515625 47.515625 
Q 24.703125 47.515625 21.578125 45.265625 
Q 18.453125 43.015625 18.453125 38.921875 
z
M 5.671875 0 
L 22.359375 23.96875 
Q 16.703125 25.25 12.9375 28.59375 
Q 9.1875 31.9375 9.1875 38.921875 
Q 9.1875 46.828125 14.421875 50.75 
Q 19.671875 54.6875 30.28125 54.6875 
L 51.65625 54.6875 
L 51.65625 0 
L 42.625 0 
L 42.625 23.09375 
L 31.453125 23.09375 
L 15.328125 0 
z
" id="DejaVuSans-1103"/>
      <path id="DejaVuSans-32"/>
      <path d="M 9.078125 54.6875 
L 22.21875 54.6875 
L 37.75 18.0625 
L 53.328125 54.6875 
L 66.359375 54.6875 
L 66.359375 0 
L 57.328125 0 
L 57.328125 46.09375 
L 42.234375 10.5 
L 33.25 10.5 
L 18.109375 46.09375 
L 18.109375 0 
L 9.078125 0 
z
" id="DejaVuSans-1084"/>
      <path d="M 56.203125 29.59375 
L 56.203125 25.203125 
L 14.890625 25.203125 
Q 15.484375 15.921875 20.484375 11.0625 
Q 25.484375 6.203125 34.421875 6.203125 
Q 39.59375 6.203125 44.453125 7.46875 
Q 49.3125 8.734375 54.109375 11.28125 
L 54.109375 2.78125 
Q 49.265625 0.734375 44.1875 -0.34375 
Q 39.109375 -1.421875 33.890625 -1.421875 
Q 20.796875 -1.421875 13.15625 6.1875 
Q 5.515625 13.8125 5.515625 26.8125 
Q 5.515625 40.234375 12.765625 48.109375 
Q 20.015625 56 32.328125 56 
Q 43.359375 56 49.78125 48.890625 
Q 56.203125 41.796875 56.203125 29.59375 
z
M 47.21875 32.234375 
Q 47.125 39.59375 43.09375 43.984375 
Q 39.0625 48.390625 32.421875 48.390625 
Q 24.90625 48.390625 20.390625 44.140625 
Q 15.875 39.890625 15.1875 32.171875 
z
" id="DejaVuSans-1077"/>
      <path d="M 30.609375 48.390625 
Q 23.390625 48.390625 19.1875 42.75 
Q 14.984375 37.109375 14.984375 27.296875 
Q 14.984375 17.484375 19.15625 11.84375 
Q 23.34375 6.203125 30.609375 6.203125 
Q 37.796875 6.203125 41.984375 11.859375 
Q 46.1875 17.53125 46.1875 27.296875 
Q 46.1875 37.015625 41.984375 42.703125 
Q 37.796875 48.390625 30.609375 48.390625 
z
M 30.609375 56 
Q 42.328125 56 49.015625 48.375 
Q 55.71875 40.765625 55.71875 27.296875 
Q 55.71875 13.875 49.015625 6.21875 
Q 42.328125 -1.421875 30.609375 -1.421875 
Q 18.84375 -1.421875 12.171875 6.21875 
Q 5.515625 13.875 5.515625 27.296875 
Q 5.515625 40.765625 12.171875 48.375 
Q 18.84375 56 30.609375 56 
z
" id="DejaVuSans-1086"/>
      <path d="M 56.296875 54.6875 
L 56.296875 0 
L 47.265625 0 
L 47.265625 47.515625 
L 18.109375 47.515625 
L 18.109375 0 
L 9.078125 0 
L 9.078125 54.6875 
z
" id="DejaVuSans-1087"/>
      <path d="M 2.9375 54.6875 
L 55.328125 54.6875 
L 55.328125 47.515625 
L 33.546875 47.515625 
L 33.546875 0 
L 24.703125 0 
L 24.703125 47.515625 
L 2.9375 47.515625 
z
" id="DejaVuSans-1090"/>
      <path d="M 55.90625 54.6875 
L 55.90625 0 
L 46.96875 0 
L 46.96875 43.890625 
L 20.609375 0 
L 9.078125 0 
L 9.078125 54.6875 
L 18.015625 54.6875 
L 18.015625 10.890625 
L 44.34375 54.6875 
z
M 17.21875 75.515625 
L 22.984375 75.515625 
Q 23.515625 71.859375 25.875 70.015625 
Q 28.25 68.1875 32.5 68.1875 
Q 36.703125 68.1875 39.046875 70 
Q 41.390625 71.8125 42.015625 75.515625 
L 47.78125 75.515625 
Q 47.296875 68.53125 43.4375 65.015625 
Q 39.578125 61.5 32.5 61.5 
Q 25.421875 61.5 21.5625 65.015625 
Q 17.703125 68.53125 17.21875 75.515625 
z
" id="DejaVuSans-1081"/>
     </defs>
     <use xlink:href="#DejaVuSans-1054"/>
     <use x="78.710938" xlink:href="#DejaVuSans-1088"/>
     <use x="142.1875" xlink:href="#DejaVuSans-1075"/>
     <use x="194.726562" xlink:href="#DejaVuSans-1072"/>
     <use x="256.005859" xlink:href="#DejaVuSans-1085"/>
     <use x="321.386719" xlink:href="#DejaVuSans-1080"/>
     <use x="386.376953" xlink:href="#DejaVuSans-1079"/>
     <use x="439.550781" xlink:href="#DejaVuSans-1072"/>
     <use x="500.830078" xlink:href="#DejaVuSans-1094"/>
     <use x="568.896484" xlink:href="#DejaVuSans-1080"/>
     <use x="633.886719" xlink:href="#DejaVuSans-1103"/>
     <use x="694.042969" xlink:href="#DejaVuSans-32"/>
     <use x="725.830078" xlink:href="#DejaVuSans-1084"/>
     <use x="801.269531" xlink:href="#DejaVuSans-1077"/>
     <use x="862.792969" xlink:href="#DejaVuSans-1088"/>
     <use x="926.269531" xlink:href="#DejaVuSans-1086"/>
     <use x="987.451172" xlink:href="#DejaVuSans-1087"/>
     <use x="1052.832031" xlink:href="#DejaVuSans-1088"/>
     <use x="1116.308594" xlink:href="#DejaVuSans-1080"/>
     <use x="1181.298828" xlink:href="#DejaVuSans-1103"/>
     <use x="1241.455078" xlink:href="#DejaVuSans-1090"/>
     <use x="1299.707031" xlink:href="#DejaVuSans-1080"/>
     <use x="1364.697266" xlink:href="#DejaVuSans-1081"/>
    </g>
   </g>
   <g id="patch_16">
    <path d="M 10.5 95.211164 
L 27 95.211164 
L 27 89.436164 
L 10.5 89.436164 
z
" style="fill:#feae65;stroke:#edeff3;stroke-linejoin:miter;stroke-width:1.5;"/>
   </g>
   <g id="text_2">
    <!-- Организация деловых поездок -->
    <g style="fill:#262626;" transform="translate(33.6 95.211164)scale(0.0825 -0.0825)">
     <defs>
      <path d="M 21.625 7.171875 
L 47.703125 7.171875 
L 47.703125 47.515625 
L 28.8125 47.515625 
L 28.8125 40.671875 
Q 28.8125 20.5625 23.046875 9.8125 
z
M 8.59375 7.171875 
Q 13.03125 9.125 14.984375 13.28125 
Q 19.78125 23.578125 19.78125 44.34375 
L 19.78125 54.6875 
L 56.734375 54.6875 
L 56.734375 7.171875 
L 63.921875 7.171875 
L 63.921875 -13.8125 
L 56.734375 -13.8125 
L 56.734375 0 
L 12.40625 0 
L 12.40625 -13.8125 
L 5.21875 -13.8125 
L 5.21875 7.171875 
z
" id="DejaVuSans-1076"/>
      <path d="M 3.71875 0 
L 3.71875 7.46875 
Q 12.59375 8.84375 15.328125 14.984375 
Q 18.65625 23.640625 18.65625 45.75 
L 18.65625 54.6875 
L 55.609375 54.6875 
L 55.609375 0 
L 46.625 0 
L 46.625 47.515625 
L 27.640625 47.515625 
L 27.640625 42.09375 
Q 27.640625 21 23.34375 11.53125 
Q 18.75 1.421875 3.71875 0 
z
" id="DejaVuSans-1083"/>
      <path d="M 18.0625 25.203125 
L 18.0625 7.171875 
L 30.859375 7.171875 
Q 37.015625 7.171875 40.234375 9.484375 
Q 43.453125 11.8125 43.453125 16.21875 
Q 43.453125 20.609375 40.234375 22.90625 
Q 37.015625 25.203125 30.859375 25.203125 
z
M 18.0625 47.515625 
L 18.0625 32.375 
L 29.890625 32.375 
Q 34.96875 32.375 38.1875 34.390625 
Q 41.40625 36.421875 41.40625 40.046875 
Q 41.40625 43.65625 38.1875 45.578125 
Q 34.96875 47.515625 29.890625 47.515625 
z
M 9.078125 54.6875 
L 30.46875 54.6875 
Q 40.09375 54.6875 45.265625 51.171875 
Q 50.4375 47.65625 50.4375 41.15625 
Q 50.4375 36.140625 47.796875 33.171875 
Q 45.171875 30.21875 39.984375 29.5 
Q 46.1875 28.328125 49.609375 24.609375 
Q 53.03125 20.90625 53.03125 15.328125 
Q 53.03125 8.015625 47.390625 4 
Q 41.75 0 31.296875 0 
L 9.078125 0 
z
" id="DejaVuSans-1074"/>
      <path d="M 61.046875 54.6875 
L 70.03125 54.6875 
L 70.03125 0 
L 61.046875 0 
z
M 65.546875 56 
z
M 43.453125 16.21875 
Q 43.453125 20.609375 40.25 22.90625 
Q 37.0625 25.203125 30.90625 25.203125 
L 18.109375 25.203125 
L 18.109375 7.171875 
L 30.90625 7.171875 
Q 37.0625 7.171875 40.25 9.484375 
Q 43.453125 11.8125 43.453125 16.21875 
z
M 9.078125 54.6875 
L 18.109375 54.6875 
L 18.109375 32.375 
L 31.296875 32.375 
Q 41.75 32.375 47.390625 28.390625 
Q 53.03125 24.421875 53.03125 16.21875 
Q 53.03125 8.015625 47.390625 4 
Q 41.75 0 31.296875 0 
L 9.078125 0 
z
" id="DejaVuSans-1099"/>
      <path d="M 54.890625 54.6875 
L 35.109375 28.078125 
L 55.90625 0 
L 45.3125 0 
L 29.390625 21.484375 
L 13.484375 0 
L 2.875 0 
L 24.125 28.609375 
L 4.6875 54.6875 
L 15.28125 54.6875 
L 29.78125 35.203125 
L 44.28125 54.6875 
z
" id="DejaVuSans-1093"/>
      <path d="M 9.078125 54.6875 
L 18.015625 54.6875 
L 18.015625 29 
L 43.359375 54.6875 
L 54.390625 54.6875 
L 33.5 33.546875 
L 57.078125 0 
L 47.015625 0 
L 27.640625 27.59375 
L 18.015625 17.828125 
L 18.015625 0 
L 9.078125 0 
z
" id="DejaVuSans-1082"/>
     </defs>
     <use xlink:href="#DejaVuSans-1054"/>
     <use x="78.710938" xlink:href="#DejaVuSans-1088"/>
     <use x="142.1875" xlink:href="#DejaVuSans-1075"/>
     <use x="194.726562" xlink:href="#DejaVuSans-1072"/>
     <use x="256.005859" xlink:href="#DejaVuSans-1085"/>
     <use x="321.386719" xlink:href="#DejaVuSans-1080"/>
     <use x="386.376953" xlink:href="#DejaVuSans-1079"/>
     <use x="439.550781" xlink:href="#DejaVuSans-1072"/>
     <use x="500.830078" xlink:href="#DejaVuSans-1094"/>
     <use x="568.896484" xlink:href="#DejaVuSans-1080"/>
     <use x="633.886719" xlink:href="#DejaVuSans-1103"/>
     <use x="694.042969" xlink:href="#DejaVuSans-32"/>
     <use x="725.830078" xlink:href="#DejaVuSans-1076"/>
     <use x="794.970703" xlink:href="#DejaVuSans-1077"/>
     <use x="856.494141" xlink:href="#DejaVuSans-1083"/>
     <use x="920.410156" xlink:href="#DejaVuSans-1086"/>
     <use x="981.591797" xlink:href="#DejaVuSans-1074"/>
     <use x="1040.527344" xlink:href="#DejaVuSans-1099"/>
     <use x="1119.482422" xlink:href="#DejaVuSans-1093"/>
     <use x="1178.662109" xlink:href="#DejaVuSans-32"/>
     <use x="1210.449219" xlink:href="#DejaVuSans-1087"/>
     <use x="1275.830078" xlink:href="#DejaVuSans-1086"/>
     <use x="1337.011719" xlink:href="#DejaVuSans-1077"/>
     <use x="1398.535156" xlink:href="#DejaVuSans-1079"/>
     <use x="1451.708984" xlink:href="#DejaVuSans-1076"/>
     <use x="1520.849609" xlink:href="#DejaVuSans-1086"/>
     <use x="1582.03125" xlink:href="#DejaVuSans-1082"/>
    </g>
   </g>
   <g id="patch_17">
    <path d="M 10.5 107.320617 
L 27 107.320617 
L 27 101.545617 
L 10.5 101.545617 
z
" style="fill:#e6f69d;stroke:#edeff3;stroke-linejoin:miter;stroke-width:1.5;"/>
   </g>
   <g id="text_3">
    <!-- Деловое общение -->
    <g style="fill:#262626;" transform="translate(33.6 107.320617)scale(0.0825 -0.0825)">
     <defs>
      <path d="M 22.796875 8.296875 
L 55.03125 8.296875 
L 55.03125 64.59375 
L 31.34375 64.59375 
L 31.34375 54.25 
Q 31.34375 29.890625 25.875 13.71875 
Q 24.75 10.40625 22.796875 8.296875 
z
M 8.40625 8.296875 
Q 14.9375 11.375 16.796875 17.234375 
Q 21.53125 32.28125 21.53125 59.125 
L 21.53125 72.90625 
L 64.890625 72.90625 
L 64.890625 8.296875 
L 73.1875 8.296875 
L 73.1875 -15.671875 
L 64.890625 -15.671875 
L 64.890625 0 
L 13.234375 0 
L 13.234375 -15.671875 
L 4.9375 -15.671875 
L 4.9375 8.296875 
z
" id="DejaVuSans-1044"/>
      <path d="M 31.109375 56 
Q 42.828125 56 49.515625 48.375 
Q 56.203125 40.765625 56.203125 27.296875 
Q 56.203125 13.875 49.515625 6.21875 
Q 42.828125 -1.421875 31.109375 -1.421875 
Q 19.34375 -1.421875 12.84375 6 
Q 6.34375 13.421875 6 27.296875 
L 5.71875 38.484375 
Q 5.46875 44.28125 5.46875 46.296875 
Q 5.46875 54.109375 8.296875 59.859375 
Q 12.75 68.890625 20.4375 72.796875 
Q 28.125 76.703125 41.015625 76.8125 
Q 46.96875 76.859375 49.609375 77.6875 
L 52.09375 70.5625 
Q 49.703125 69.578125 47.515625 69.53125 
L 35.296875 68.703125 
Q 29.15625 68.265625 25.4375 66.109375 
Q 15.71875 60.40625 14.796875 52.9375 
L 14.453125 50.203125 
Q 20.796875 56 31.109375 56 
z
M 31.109375 48.390625 
Q 23.875 48.390625 19.671875 42.75 
Q 15.484375 37.109375 15.484375 27.296875 
Q 15.484375 17.484375 19.65625 11.84375 
Q 23.828125 6.203125 31.109375 6.203125 
Q 38.28125 6.203125 42.484375 11.859375 
Q 46.6875 17.53125 46.6875 27.296875 
Q 46.6875 37.015625 42.484375 42.703125 
Q 38.28125 48.390625 31.109375 48.390625 
z
" id="DejaVuSans-1073"/>
      <path d="M 82.421875 0 
L 9.078125 0 
L 9.078125 54.6875 
L 18.109375 54.6875 
L 18.109375 7.171875 
L 41.21875 7.171875 
L 41.21875 54.6875 
L 50.25 54.6875 
L 50.25 7.171875 
L 73.390625 7.171875 
L 73.390625 54.6875 
L 82.421875 54.6875 
L 82.421875 7.171875 
L 89.59375 7.171875 
L 89.59375 -13.8125 
L 82.421875 -13.8125 
z
" id="DejaVuSans-1097"/>
     </defs>
     <use xlink:href="#DejaVuSans-1044"/>
     <use x="78.125" xlink:href="#DejaVuSans-1077"/>
     <use x="139.648438" xlink:href="#DejaVuSans-1083"/>
     <use x="203.564453" xlink:href="#DejaVuSans-1086"/>
     <use x="264.746094" xlink:href="#DejaVuSans-1074"/>
     <use x="323.681641" xlink:href="#DejaVuSans-1086"/>
     <use x="384.863281" xlink:href="#DejaVuSans-1077"/>
     <use x="446.386719" xlink:href="#DejaVuSans-32"/>
     <use x="478.173828" xlink:href="#DejaVuSans-1086"/>
     <use x="539.355469" xlink:href="#DejaVuSans-1073"/>
     <use x="601.025391" xlink:href="#DejaVuSans-1097"/>
     <use x="695.214844" xlink:href="#DejaVuSans-1077"/>
     <use x="756.738281" xlink:href="#DejaVuSans-1085"/>
     <use x="822.119141" xlink:href="#DejaVuSans-1080"/>
     <use x="887.109375" xlink:href="#DejaVuSans-1077"/>
    </g>
   </g>
   <g id="patch_18">
    <path d="M 10.5 119.43007 
L 27 119.43007 
L 27 113.65507 
L 10.5 113.65507 
z
" style="fill:#aadea7;stroke:#edeff3;stroke-linejoin:miter;stroke-width:1.5;"/>
   </g>
   <g id="text_4">
    <!-- MS PowerPoint -->
    <g style="fill:#262626;" transform="translate(33.6 119.43007)scale(0.0825 -0.0825)">
     <defs>
      <path d="M 9.8125 72.90625 
L 24.515625 72.90625 
L 43.109375 23.296875 
L 61.8125 72.90625 
L 76.515625 72.90625 
L 76.515625 0 
L 66.890625 0 
L 66.890625 64.015625 
L 48.09375 14.015625 
L 38.1875 14.015625 
L 19.390625 64.015625 
L 19.390625 0 
L 9.8125 0 
z
" id="DejaVuSans-77"/>
      <path d="M 53.515625 70.515625 
L 53.515625 60.890625 
Q 47.90625 63.578125 42.921875 64.890625 
Q 37.9375 66.21875 33.296875 66.21875 
Q 25.25 66.21875 20.875 63.09375 
Q 16.5 59.96875 16.5 54.203125 
Q 16.5 49.359375 19.40625 46.890625 
Q 22.3125 44.4375 30.421875 42.921875 
L 36.375 41.703125 
Q 47.40625 39.59375 52.65625 34.296875 
Q 57.90625 29 57.90625 20.125 
Q 57.90625 9.515625 50.796875 4.046875 
Q 43.703125 -1.421875 29.984375 -1.421875 
Q 24.8125 -1.421875 18.96875 -0.25 
Q 13.140625 0.921875 6.890625 3.21875 
L 6.890625 13.375 
Q 12.890625 10.015625 18.65625 8.296875 
Q 24.421875 6.59375 29.984375 6.59375 
Q 38.421875 6.59375 43.015625 9.90625 
Q 47.609375 13.234375 47.609375 19.390625 
Q 47.609375 24.75 44.3125 27.78125 
Q 41.015625 30.8125 33.5 32.328125 
L 27.484375 33.5 
Q 16.453125 35.6875 11.515625 40.375 
Q 6.59375 45.0625 6.59375 53.421875 
Q 6.59375 63.09375 13.40625 68.65625 
Q 20.21875 74.21875 32.171875 74.21875 
Q 37.3125 74.21875 42.625 73.28125 
Q 47.953125 72.359375 53.515625 70.515625 
z
" id="DejaVuSans-83"/>
      <path d="M 19.671875 64.796875 
L 19.671875 37.40625 
L 32.078125 37.40625 
Q 38.96875 37.40625 42.71875 40.96875 
Q 46.484375 44.53125 46.484375 51.125 
Q 46.484375 57.671875 42.71875 61.234375 
Q 38.96875 64.796875 32.078125 64.796875 
z
M 9.8125 72.90625 
L 32.078125 72.90625 
Q 44.34375 72.90625 50.609375 67.359375 
Q 56.890625 61.8125 56.890625 51.125 
Q 56.890625 40.328125 50.609375 34.8125 
Q 44.34375 29.296875 32.078125 29.296875 
L 19.671875 29.296875 
L 19.671875 0 
L 9.8125 0 
z
" id="DejaVuSans-80"/>
      <path d="M 30.609375 48.390625 
Q 23.390625 48.390625 19.1875 42.75 
Q 14.984375 37.109375 14.984375 27.296875 
Q 14.984375 17.484375 19.15625 11.84375 
Q 23.34375 6.203125 30.609375 6.203125 
Q 37.796875 6.203125 41.984375 11.859375 
Q 46.1875 17.53125 46.1875 27.296875 
Q 46.1875 37.015625 41.984375 42.703125 
Q 37.796875 48.390625 30.609375 48.390625 
z
M 30.609375 56 
Q 42.328125 56 49.015625 48.375 
Q 55.71875 40.765625 55.71875 27.296875 
Q 55.71875 13.875 49.015625 6.21875 
Q 42.328125 -1.421875 30.609375 -1.421875 
Q 18.84375 -1.421875 12.171875 6.21875 
Q 5.515625 13.875 5.515625 27.296875 
Q 5.515625 40.765625 12.171875 48.375 
Q 18.84375 56 30.609375 56 
z
" id="DejaVuSans-111"/>
      <path d="M 4.203125 54.6875 
L 13.1875 54.6875 
L 24.421875 12.015625 
L 35.59375 54.6875 
L 46.1875 54.6875 
L 57.421875 12.015625 
L 68.609375 54.6875 
L 77.59375 54.6875 
L 63.28125 0 
L 52.6875 0 
L 40.921875 44.828125 
L 29.109375 0 
L 18.5 0 
z
" id="DejaVuSans-119"/>
      <path d="M 56.203125 29.59375 
L 56.203125 25.203125 
L 14.890625 25.203125 
Q 15.484375 15.921875 20.484375 11.0625 
Q 25.484375 6.203125 34.421875 6.203125 
Q 39.59375 6.203125 44.453125 7.46875 
Q 49.3125 8.734375 54.109375 11.28125 
L 54.109375 2.78125 
Q 49.265625 0.734375 44.1875 -0.34375 
Q 39.109375 -1.421875 33.890625 -1.421875 
Q 20.796875 -1.421875 13.15625 6.1875 
Q 5.515625 13.8125 5.515625 26.8125 
Q 5.515625 40.234375 12.765625 48.109375 
Q 20.015625 56 32.328125 56 
Q 43.359375 56 49.78125 48.890625 
Q 56.203125 41.796875 56.203125 29.59375 
z
M 47.21875 32.234375 
Q 47.125 39.59375 43.09375 43.984375 
Q 39.0625 48.390625 32.421875 48.390625 
Q 24.90625 48.390625 20.390625 44.140625 
Q 15.875 39.890625 15.1875 32.171875 
z
" id="DejaVuSans-101"/>
      <path d="M 41.109375 46.296875 
Q 39.59375 47.171875 37.8125 47.578125 
Q 36.03125 48 33.890625 48 
Q 26.265625 48 22.1875 43.046875 
Q 18.109375 38.09375 18.109375 28.8125 
L 18.109375 0 
L 9.078125 0 
L 9.078125 54.6875 
L 18.109375 54.6875 
L 18.109375 46.1875 
Q 20.953125 51.171875 25.484375 53.578125 
Q 30.03125 56 36.53125 56 
Q 37.453125 56 38.578125 55.875 
Q 39.703125 55.765625 41.0625 55.515625 
z
" id="DejaVuSans-114"/>
      <path d="M 9.421875 54.6875 
L 18.40625 54.6875 
L 18.40625 0 
L 9.421875 0 
z
M 9.421875 75.984375 
L 18.40625 75.984375 
L 18.40625 64.59375 
L 9.421875 64.59375 
z
" id="DejaVuSans-105"/>
      <path d="M 54.890625 33.015625 
L 54.890625 0 
L 45.90625 0 
L 45.90625 32.71875 
Q 45.90625 40.484375 42.875 44.328125 
Q 39.84375 48.1875 33.796875 48.1875 
Q 26.515625 48.1875 22.3125 43.546875 
Q 18.109375 38.921875 18.109375 30.90625 
L 18.109375 0 
L 9.078125 0 
L 9.078125 54.6875 
L 18.109375 54.6875 
L 18.109375 46.1875 
Q 21.34375 51.125 25.703125 53.5625 
Q 30.078125 56 35.796875 56 
Q 45.21875 56 50.046875 50.171875 
Q 54.890625 44.34375 54.890625 33.015625 
z
" id="DejaVuSans-110"/>
      <path d="M 18.3125 70.21875 
L 18.3125 54.6875 
L 36.8125 54.6875 
L 36.8125 47.703125 
L 18.3125 47.703125 
L 18.3125 18.015625 
Q 18.3125 11.328125 20.140625 9.421875 
Q 21.96875 7.515625 27.59375 7.515625 
L 36.8125 7.515625 
L 36.8125 0 
L 27.59375 0 
Q 17.1875 0 13.234375 3.875 
Q 9.28125 7.765625 9.28125 18.015625 
L 9.28125 47.703125 
L 2.6875 47.703125 
L 2.6875 54.6875 
L 9.28125 54.6875 
L 9.28125 70.21875 
z
" id="DejaVuSans-116"/>
     </defs>
     <use xlink:href="#DejaVuSans-77"/>
     <use x="86.279297" xlink:href="#DejaVuSans-83"/>
     <use x="149.755859" xlink:href="#DejaVuSans-32"/>
     <use x="181.542969" xlink:href="#DejaVuSans-80"/>
     <use x="238.220703" xlink:href="#DejaVuSans-111"/>
     <use x="299.402344" xlink:href="#DejaVuSans-119"/>
     <use x="381.189453" xlink:href="#DejaVuSans-101"/>
     <use x="442.712891" xlink:href="#DejaVuSans-114"/>
     <use x="483.826172" xlink:href="#DejaVuSans-80"/>
     <use x="540.503906" xlink:href="#DejaVuSans-111"/>
     <use x="601.685547" xlink:href="#DejaVuSans-105"/>
     <use x="629.46875" xlink:href="#DejaVuSans-110"/>
     <use x="692.847656" xlink:href="#DejaVuSans-116"/>
    </g>
   </g>
   <g id="patch_19">
    <path d="M 10.5 131.539523 
L 27 131.539523 
L 27 125.764523 
L 10.5 125.764523 
z
" style="fill:#64c2a6;stroke:#edeff3;stroke-linejoin:miter;stroke-width:1.5;"/>
   </g>
   <g id="text_5">
    <!-- Организация встреч -->
    <g style="fill:#262626;" transform="translate(33.6 131.539523)scale(0.0825 -0.0825)">
     <defs>
      <path d="M 48.78125 52.59375 
L 48.78125 44.1875 
Q 44.96875 46.296875 41.140625 47.34375 
Q 37.3125 48.390625 33.40625 48.390625 
Q 24.65625 48.390625 19.8125 42.84375 
Q 14.984375 37.3125 14.984375 27.296875 
Q 14.984375 17.28125 19.8125 11.734375 
Q 24.65625 6.203125 33.40625 6.203125 
Q 37.3125 6.203125 41.140625 7.25 
Q 44.96875 8.296875 48.78125 10.40625 
L 48.78125 2.09375 
Q 45.015625 0.34375 40.984375 -0.53125 
Q 36.96875 -1.421875 32.421875 -1.421875 
Q 20.0625 -1.421875 12.78125 6.34375 
Q 5.515625 14.109375 5.515625 27.296875 
Q 5.515625 40.671875 12.859375 48.328125 
Q 20.21875 56 33.015625 56 
Q 37.15625 56 41.109375 55.140625 
Q 45.0625 54.296875 48.78125 52.59375 
z
" id="DejaVuSans-1089"/>
      <path d="M 41.015625 0 
L 41.015625 23 
L 24.265625 23 
Q 16.796875 23 11.8125 27.640625 
Q 7.328125 31.84375 7.328125 40.828125 
L 7.328125 54.6875 
L 16.3125 54.6875 
L 16.3125 41.65625 
Q 16.3125 35.9375 18.84375 33.0625 
Q 21.4375 30.171875 26.515625 30.171875 
L 41.015625 30.171875 
L 41.015625 54.6875 
L 50 54.6875 
L 50 0 
z
" id="DejaVuSans-1095"/>
     </defs>
     <use xlink:href="#DejaVuSans-1054"/>
     <use x="78.710938" xlink:href="#DejaVuSans-1088"/>
     <use x="142.1875" xlink:href="#DejaVuSans-1075"/>
     <use x="194.726562" xlink:href="#DejaVuSans-1072"/>
     <use x="256.005859" xlink:href="#DejaVuSans-1085"/>
     <use x="321.386719" xlink:href="#DejaVuSans-1080"/>
     <use x="386.376953" xlink:href="#DejaVuSans-1079"/>
     <use x="439.550781" xlink:href="#DejaVuSans-1072"/>
     <use x="500.830078" xlink:href="#DejaVuSans-1094"/>
     <use x="568.896484" xlink:href="#DejaVuSans-1080"/>
     <use x="633.886719" xlink:href="#DejaVuSans-1103"/>
     <use x="694.042969" xlink:href="#DejaVuSans-32"/>
     <use x="725.830078" xlink:href="#DejaVuSans-1074"/>
     <use x="784.765625" xlink:href="#DejaVuSans-1089"/>
     <use x="839.746094" xlink:href="#DejaVuSans-1090"/>
     <use x="897.998047" xlink:href="#DejaVuSans-1088"/>
     <use x="961.474609" xlink:href="#DejaVuSans-1077"/>
     <use x="1022.998047" xlink:href="#DejaVuSans-1095"/>
    </g>
   </g>
   <g id="patch_20">
    <path d="M 10.5 143.648977 
L 27 143.648977 
L 27 137.873977 
L 10.5 137.873977 
z
" style="fill:#2d87bb;stroke:#edeff3;stroke-linejoin:miter;stroke-width:1.5;"/>
   </g>
   <g id="text_6">
    <!-- Административная поддержка руководителя -->
    <g style="fill:#262626;" transform="translate(33.6 143.648977)scale(0.0825 -0.0825)">
     <defs>
      <path d="M 34.1875 63.1875 
L 20.796875 26.90625 
L 47.609375 26.90625 
z
M 28.609375 72.90625 
L 39.796875 72.90625 
L 67.578125 0 
L 57.328125 0 
L 50.6875 18.703125 
L 17.828125 18.703125 
L 11.1875 0 
L 0.78125 0 
z
" id="DejaVuSans-1040"/>
      <path d="M 40.578125 54.6875 
L 49.515625 54.6875 
L 49.515625 29 
L 73.390625 54.6875 
L 83.84375 54.6875 
L 64.203125 33.640625 
L 86.671875 0 
L 77.046875 0 
L 58.640625 27.640625 
L 49.515625 17.828125 
L 49.515625 0 
L 40.578125 0 
L 40.578125 17.828125 
L 31.453125 27.640625 
L 13.03125 0 
L 3.421875 0 
L 25.875 33.640625 
L 6.25 54.6875 
L 16.703125 54.6875 
L 40.578125 29 
z
" id="DejaVuSans-1078"/>
      <path d="M 32.171875 -5.078125 
Q 28.375 -14.84375 24.75 -17.8125 
Q 21.140625 -20.796875 15.09375 -20.796875 
L 7.90625 -20.796875 
L 7.90625 -13.28125 
L 13.1875 -13.28125 
Q 16.890625 -13.28125 18.9375 -11.515625 
Q 21 -9.765625 23.484375 -3.21875 
L 25.09375 0.875 
L 2.984375 54.6875 
L 12.5 54.6875 
L 29.59375 11.921875 
L 46.6875 54.6875 
L 56.203125 54.6875 
z
" id="DejaVuSans-1091"/>
     </defs>
     <use xlink:href="#DejaVuSans-1040"/>
     <use x="68.408203" xlink:href="#DejaVuSans-1076"/>
     <use x="137.548828" xlink:href="#DejaVuSans-1084"/>
     <use x="212.988281" xlink:href="#DejaVuSans-1080"/>
     <use x="277.978516" xlink:href="#DejaVuSans-1085"/>
     <use x="343.359375" xlink:href="#DejaVuSans-1080"/>
     <use x="408.349609" xlink:href="#DejaVuSans-1089"/>
     <use x="463.330078" xlink:href="#DejaVuSans-1090"/>
     <use x="521.582031" xlink:href="#DejaVuSans-1088"/>
     <use x="585.058594" xlink:href="#DejaVuSans-1072"/>
     <use x="646.337891" xlink:href="#DejaVuSans-1090"/>
     <use x="704.589844" xlink:href="#DejaVuSans-1080"/>
     <use x="769.580078" xlink:href="#DejaVuSans-1074"/>
     <use x="828.515625" xlink:href="#DejaVuSans-1085"/>
     <use x="893.896484" xlink:href="#DejaVuSans-1072"/>
     <use x="955.175781" xlink:href="#DejaVuSans-1103"/>
     <use x="1015.332031" xlink:href="#DejaVuSans-32"/>
     <use x="1047.119141" xlink:href="#DejaVuSans-1087"/>
     <use x="1112.5" xlink:href="#DejaVuSans-1086"/>
     <use x="1173.681641" xlink:href="#DejaVuSans-1076"/>
     <use x="1242.822266" xlink:href="#DejaVuSans-1076"/>
     <use x="1311.962891" xlink:href="#DejaVuSans-1077"/>
     <use x="1373.486328" xlink:href="#DejaVuSans-1088"/>
     <use x="1436.962891" xlink:href="#DejaVuSans-1078"/>
     <use x="1527.050781" xlink:href="#DejaVuSans-1082"/>
     <use x="1587.451172" xlink:href="#DejaVuSans-1072"/>
     <use x="1648.730469" xlink:href="#DejaVuSans-32"/>
     <use x="1680.517578" xlink:href="#DejaVuSans-1088"/>
     <use x="1743.994141" xlink:href="#DejaVuSans-1091"/>
     <use x="1803.173828" xlink:href="#DejaVuSans-1082"/>
     <use x="1863.574219" xlink:href="#DejaVuSans-1086"/>
     <use x="1924.755859" xlink:href="#DejaVuSans-1074"/>
     <use x="1983.691406" xlink:href="#DejaVuSans-1086"/>
     <use x="2044.873047" xlink:href="#DejaVuSans-1076"/>
     <use x="2114.013672" xlink:href="#DejaVuSans-1080"/>
     <use x="2179.003906" xlink:href="#DejaVuSans-1090"/>
     <use x="2237.255859" xlink:href="#DejaVuSans-1077"/>
     <use x="2298.779297" xlink:href="#DejaVuSans-1083"/>
     <use x="2362.695312" xlink:href="#DejaVuSans-1103"/>
    </g>
   </g>
   <g id="patch_21">
    <path d="M 10.5 155.75843 
L 27 155.75843 
L 27 149.98343 
L 10.5 149.98343 
z
" style="fill:#003f5c;stroke:#edeff3;stroke-linejoin:miter;stroke-width:1.5;"/>
   </g>
   <g id="text_7">
    <!-- Деловая коммуникация -->
    <g style="fill:#262626;" transform="translate(33.6 155.75843)scale(0.0825 -0.0825)">
     <use xlink:href="#DejaVuSans-1044"/>
     <use x="78.125" xlink:href="#DejaVuSans-1077"/>
     <use x="139.648438" xlink:href="#DejaVuSans-1083"/>
     <use x="203.564453" xlink:href="#DejaVuSans-1086"/>
     <use x="264.746094" xlink:href="#DejaVuSans-1074"/>
     <use x="323.681641" xlink:href="#DejaVuSans-1072"/>
     <use x="384.960938" xlink:href="#DejaVuSans-1103"/>
     <use x="445.117188" xlink:href="#DejaVuSans-32"/>
     <use x="476.904297" xlink:href="#DejaVuSans-1082"/>
     <use x="537.304688" xlink:href="#DejaVuSans-1086"/>
     <use x="598.486328" xlink:href="#DejaVuSans-1084"/>
     <use x="673.925781" xlink:href="#DejaVuSans-1084"/>
     <use x="749.365234" xlink:href="#DejaVuSans-1091"/>
     <use x="808.544922" xlink:href="#DejaVuSans-1085"/>
     <use x="873.925781" xlink:href="#DejaVuSans-1080"/>
     <use x="938.916016" xlink:href="#DejaVuSans-1082"/>
     <use x="999.316406" xlink:href="#DejaVuSans-1072"/>
     <use x="1060.595703" xlink:href="#DejaVuSans-1094"/>
     <use x="1128.662109" xlink:href="#DejaVuSans-1080"/>
     <use x="1193.652344" xlink:href="#DejaVuSans-1103"/>
    </g>
   </g>
   <g id="patch_22">
    <path d="M 10.5 167.867883 
L 27 167.867883 
L 27 162.092883 
L 10.5 162.092883 
z
" style="fill:#58508d;stroke:#edeff3;stroke-linejoin:miter;stroke-width:1.5;"/>
   </g>
   <g id="text_8">
    <!-- Грамотная речь -->
    <g style="fill:#262626;" transform="translate(33.6 167.867883)scale(0.0825 -0.0825)">
     <defs>
      <path d="M 9.8125 0 
L 9.8125 72.90625 
L 55.171875 72.90625 
L 55.171875 64.59375 
L 19.671875 64.59375 
L 19.671875 0 
z
" id="DejaVuSans-1043"/>
      <path d="M 43.453125 16.21875 
Q 43.453125 20.609375 40.25 22.90625 
Q 37.0625 25.203125 30.90625 25.203125 
L 18.109375 25.203125 
L 18.109375 7.171875 
L 30.90625 7.171875 
Q 37.0625 7.171875 40.25 9.484375 
Q 43.453125 11.8125 43.453125 16.21875 
z
M 9.078125 54.6875 
L 18.109375 54.6875 
L 18.109375 32.375 
L 31.296875 32.375 
Q 41.75 32.375 47.390625 28.390625 
Q 53.03125 24.421875 53.03125 16.21875 
Q 53.03125 8.015625 47.390625 4 
Q 41.75 0 31.296875 0 
L 9.078125 0 
z
" id="DejaVuSans-1100"/>
     </defs>
     <use xlink:href="#DejaVuSans-1043"/>
     <use x="60.986328" xlink:href="#DejaVuSans-1088"/>
     <use x="124.462891" xlink:href="#DejaVuSans-1072"/>
     <use x="185.742188" xlink:href="#DejaVuSans-1084"/>
     <use x="261.181641" xlink:href="#DejaVuSans-1086"/>
     <use x="322.363281" xlink:href="#DejaVuSans-1090"/>
     <use x="380.615234" xlink:href="#DejaVuSans-1085"/>
     <use x="445.996094" xlink:href="#DejaVuSans-1072"/>
     <use x="507.275391" xlink:href="#DejaVuSans-1103"/>
     <use x="567.431641" xlink:href="#DejaVuSans-32"/>
     <use x="599.21875" xlink:href="#DejaVuSans-1088"/>
     <use x="662.695312" xlink:href="#DejaVuSans-1077"/>
     <use x="724.21875" xlink:href="#DejaVuSans-1095"/>
     <use x="783.300781" xlink:href="#DejaVuSans-1100"/>
    </g>
   </g>
   <g id="patch_23">
    <path d="M 10.5 179.977336 
L 27 179.977336 
L 27 174.202336 
L 10.5 174.202336 
z
" style="fill:#ff6361;stroke:#edeff3;stroke-linejoin:miter;stroke-width:1.5;"/>
   </g>
   <g id="text_9">
    <!-- Деловая переписка -->
    <g style="fill:#262626;" transform="translate(33.6 179.977336)scale(0.0825 -0.0825)">
     <use xlink:href="#DejaVuSans-1044"/>
     <use x="78.125" xlink:href="#DejaVuSans-1077"/>
     <use x="139.648438" xlink:href="#DejaVuSans-1083"/>
     <use x="203.564453" xlink:href="#DejaVuSans-1086"/>
     <use x="264.746094" xlink:href="#DejaVuSans-1074"/>
     <use x="323.681641" xlink:href="#DejaVuSans-1072"/>
     <use x="384.960938" xlink:href="#DejaVuSans-1103"/>
     <use x="445.117188" xlink:href="#DejaVuSans-32"/>
     <use x="476.904297" xlink:href="#DejaVuSans-1087"/>
     <use x="542.285156" xlink:href="#DejaVuSans-1077"/>
     <use x="603.808594" xlink:href="#DejaVuSans-1088"/>
     <use x="667.285156" xlink:href="#DejaVuSans-1077"/>
     <use x="728.808594" xlink:href="#DejaVuSans-1087"/>
     <use x="794.189453" xlink:href="#DejaVuSans-1080"/>
     <use x="859.179688" xlink:href="#DejaVuSans-1089"/>
     <use x="914.160156" xlink:href="#DejaVuSans-1082"/>
     <use x="974.560547" xlink:href="#DejaVuSans-1072"/>
    </g>
   </g>
   <g id="patch_24">
    <path d="M 10.5 192.227297 
L 27 192.227297 
L 27 186.452297 
L 10.5 186.452297 
z
" style="fill:#9bbfe0;stroke:#edeff3;stroke-linejoin:miter;stroke-width:1.5;"/>
   </g>
   <g id="text_10">
    <!-- Документооборот -->
    <g style="fill:#262626;" transform="translate(33.6 192.227297)scale(0.0825 -0.0825)">
     <use xlink:href="#DejaVuSans-1044"/>
     <use x="78.125" xlink:href="#DejaVuSans-1086"/>
     <use x="139.306641" xlink:href="#DejaVuSans-1082"/>
     <use x="199.707031" xlink:href="#DejaVuSans-1091"/>
     <use x="258.886719" xlink:href="#DejaVuSans-1084"/>
     <use x="334.326172" xlink:href="#DejaVuSans-1077"/>
     <use x="395.849609" xlink:href="#DejaVuSans-1085"/>
     <use x="461.230469" xlink:href="#DejaVuSans-1090"/>
     <use x="519.482422" xlink:href="#DejaVuSans-1086"/>
     <use x="580.664062" xlink:href="#DejaVuSans-1086"/>
     <use x="641.845703" xlink:href="#DejaVuSans-1073"/>
     <use x="703.515625" xlink:href="#DejaVuSans-1086"/>
     <use x="764.697266" xlink:href="#DejaVuSans-1088"/>
     <use x="828.173828" xlink:href="#DejaVuSans-1086"/>
     <use x="889.355469" xlink:href="#DejaVuSans-1090"/>
    </g>
   </g>
   <g id="patch_25">
    <path d="M 10.5 204.33675 
L 27 204.33675 
L 27 198.56175 
L 10.5 198.56175 
z
" style="fill:#e8a09a;stroke:#edeff3;stroke-linejoin:miter;stroke-width:1.5;"/>
   </g>
   <g id="text_11">
    <!-- Делопроизводство -->
    <g style="fill:#262626;" transform="translate(33.6 204.33675)scale(0.0825 -0.0825)">
     <use xlink:href="#DejaVuSans-1044"/>
     <use x="78.125" xlink:href="#DejaVuSans-1077"/>
     <use x="139.648438" xlink:href="#DejaVuSans-1083"/>
     <use x="203.564453" xlink:href="#DejaVuSans-1086"/>
     <use x="264.746094" xlink:href="#DejaVuSans-1087"/>
     <use x="330.126953" xlink:href="#DejaVuSans-1088"/>
     <use x="393.603516" xlink:href="#DejaVuSans-1086"/>
     <use x="454.785156" xlink:href="#DejaVuSans-1080"/>
     <use x="519.775391" xlink:href="#DejaVuSans-1079"/>
     <use x="572.949219" xlink:href="#DejaVuSans-1074"/>
     <use x="631.884766" xlink:href="#DejaVuSans-1086"/>
     <use x="693.066406" xlink:href="#DejaVuSans-1076"/>
     <use x="762.207031" xlink:href="#DejaVuSans-1089"/>
     <use x="817.1875" xlink:href="#DejaVuSans-1090"/>
     <use x="875.439453" xlink:href="#DejaVuSans-1074"/>
     <use x="934.375" xlink:href="#DejaVuSans-1086"/>
    </g>
   </g>
   <g id="patch_26">
    <path d="M 10.5 216.446203 
L 27 216.446203 
L 27 210.671203 
L 10.5 210.671203 
z
" style="fill:#fbe29f;stroke:#edeff3;stroke-linejoin:miter;stroke-width:1.5;"/>
   </g>
   <g id="text_12">
    <!-- Пользователь ПК -->
    <g style="fill:#262626;" transform="translate(33.6 216.446203)scale(0.0825 -0.0825)">
     <defs>
      <path d="M 65.375 72.90625 
L 65.375 0 
L 55.515625 0 
L 55.515625 64.59375 
L 19.671875 64.59375 
L 19.671875 0 
L 9.8125 0 
L 9.8125 72.90625 
z
" id="DejaVuSans-1055"/>
      <path d="M 9.8125 72.90625 
L 19.671875 72.90625 
L 19.671875 36.859375 
L 54.9375 72.90625 
L 67.578125 72.90625 
L 39.40625 44.09375 
L 69.046875 0 
L 58.296875 0 
L 33.015625 37.546875 
L 19.671875 23.921875 
L 19.671875 0 
L 9.8125 0 
z
" id="DejaVuSans-1050"/>
     </defs>
     <use xlink:href="#DejaVuSans-1055"/>
     <use x="75.195312" xlink:href="#DejaVuSans-1086"/>
     <use x="136.376953" xlink:href="#DejaVuSans-1083"/>
     <use x="200.292969" xlink:href="#DejaVuSans-1100"/>
     <use x="259.228516" xlink:href="#DejaVuSans-1079"/>
     <use x="312.402344" xlink:href="#DejaVuSans-1086"/>
     <use x="373.583984" xlink:href="#DejaVuSans-1074"/>
     <use x="432.519531" xlink:href="#DejaVuSans-1072"/>
     <use x="493.798828" xlink:href="#DejaVuSans-1090"/>
     <use x="552.050781" xlink:href="#DejaVuSans-1077"/>
     <use x="613.574219" xlink:href="#DejaVuSans-1083"/>
     <use x="677.490234" xlink:href="#DejaVuSans-1100"/>
     <use x="736.425781" xlink:href="#DejaVuSans-32"/>
     <use x="768.212891" xlink:href="#DejaVuSans-1055"/>
     <use x="843.408203" xlink:href="#DejaVuSans-1050"/>
    </g>
   </g>
  </g>
 </g>
 <defs>
  <clipPath id="p55ef3391da">
   <rect height="266.112" width="357.12" x="60.675" y="7.2"/>
  </clipPath>
 </defs>
</svg>
